<svg width="27" height="27" viewBox="0 0 27 27" fill="none" xmlns="http://www.w3.org/2000/svg">
<g filter="url(#filter0_f_44_6437)">
<circle cx="13.5" cy="13.5" r="12.5" fill="white"/>
<circle cx="13.5" cy="13.5" r="12.25" stroke="black" stroke-opacity="0.8" stroke-width="0.5"/>
</g>
<path fill-rule="evenodd" clip-rule="evenodd" d="M18 13.5C18 13.6326 17.9407 13.7597 17.8353 13.8535C17.7298 13.9472 17.5867 13.9999 17.4376 13.9999H10.9212L13.3363 16.1455C13.3886 16.192 13.43 16.2472 13.4583 16.3079C13.4866 16.3686 13.5012 16.4337 13.5012 16.4995C13.5012 16.5652 13.4866 16.6303 13.4583 16.691C13.43 16.7517 13.3886 16.8069 13.3363 16.8534C13.284 16.8999 13.2219 16.9367 13.1536 16.9619C13.0852 16.9871 13.012 17 12.9381 17C12.8641 17 12.7909 16.9871 12.7226 16.9619C12.6542 16.9367 12.5922 16.8999 12.5399 16.8534L9.16524 13.8539C9.11286 13.8075 9.0713 13.7523 9.04295 13.6916C9.01459 13.6309 9 13.5658 9 13.5C9 13.4342 9.01459 13.3691 9.04295 13.3084C9.0713 13.2477 9.11286 13.1925 9.16524 13.1461L12.5399 10.1466C12.6455 10.0527 12.7887 10 12.9381 10C13.0874 10 13.2307 10.0527 13.3363 10.1466C13.4419 10.2405 13.5012 10.3678 13.5012 10.5005C13.5012 10.6333 13.4419 10.7606 13.3363 10.8545L10.9212 13.0001H17.4376C17.5867 13.0001 17.7298 13.0528 17.8353 13.1465C17.9407 13.2403 18 13.3674 18 13.5Z" fill="black"/>
<defs>
<filter id="filter0_f_44_6437" x="0" y="0" width="27" height="27" filterUnits="userSpaceOnUse" color-interpolation-filters="sRGB">
<feFlood flood-opacity="0" result="BackgroundImageFix"/>
<feBlend mode="normal" in="SourceGraphic" in2="BackgroundImageFix" result="shape"/>
<feGaussianBlur stdDeviation="0.5" result="effect1_foregroundBlur_44_6437"/>
</filter>
</defs>
</svg>
