<svg width="8" height="13" viewBox="0 0 8 13" fill="none" xmlns="http://www.w3.org/2000/svg">
<path d="M0.274429 12.1957C0.0986748 12.0199 -5.8651e-05 11.7814 -5.8651e-05 11.5329C-5.8651e-05 11.2843 0.0986748 11.0458 0.274429 10.87L4.91505 6.22942L0.274429 1.58879C0.103656 1.41198 0.009161 1.17516 0.0112972 0.929352C0.013433 0.683543 0.112029 0.448406 0.285849 0.274586C0.459669 0.100765 0.694806 0.00217056 0.940616 3.43323e-05C1.18642 -0.00210094 1.42324 0.0923939 1.60005 0.263166L6.90349 5.5666C7.07925 5.74241 7.17798 5.98082 7.17798 6.22942C7.17798 6.47801 7.07925 6.71642 6.90349 6.89223L1.60005 12.1957C1.42425 12.3714 1.18583 12.4702 0.937241 12.4702C0.68865 12.4702 0.450236 12.3714 0.274429 12.1957Z" fill="#6E6E6E"/>
</svg>
