<svg width="21" height="21" viewBox="0 0 21 21" fill="none" xmlns="http://www.w3.org/2000/svg">
<circle cx="10.5" cy="10.5" r="10" stroke="#DBDBDB"/>
<path d="M14.4951 12.8088C14.3726 12.9312 14.2065 13 14.0334 13C13.8602 13 13.6942 12.9312 13.5717 12.8088L10.3392 9.57628L7.10666 12.8088C6.98349 12.9278 6.81854 12.9936 6.64731 12.9921C6.47609 12.9906 6.3123 12.9219 6.19122 12.8008C6.07014 12.6798 6.00147 12.516 5.99998 12.3448C5.99849 12.1735 6.06431 12.0086 6.18327 11.8854L9.87748 8.1912C9.99994 8.06877 10.166 8 10.3392 8C10.5123 8 10.6784 8.06877 10.8009 8.1912L14.4951 11.8854C14.6175 12.0079 14.6863 12.1739 14.6863 12.3471C14.6863 12.5203 14.6175 12.6863 14.4951 12.8088Z" fill="#3F3E3E"/>
</svg>
