<svg width="21" height="21" viewBox="0 0 21 21" fill="none" xmlns="http://www.w3.org/2000/svg">
<circle cx="10.5" cy="10.5" r="10" stroke="#DBDBDB"/>
<path d="M6.1912 9.1912C6.31366 9.06877 6.47973 9 6.65289 9C6.82606 9 6.99213 9.06877 7.11459 9.1912L10.3471 12.4237L13.5796 9.1912C13.7028 9.07224 13.8677 9.00642 14.039 9.00791C14.2102 9.0094 14.374 9.07808 14.4951 9.19915C14.6161 9.32023 14.6848 9.48402 14.6863 9.65524C14.6878 9.82647 14.622 9.99143 14.503 10.1146L10.8088 13.8088C10.6863 13.9312 10.5203 14 10.3471 14C10.1739 14 10.0079 13.9312 9.88541 13.8088L6.1912 10.1146C6.06877 9.99213 6 9.82606 6 9.65289C6 9.47973 6.06877 9.31366 6.1912 9.1912Z" fill="#3F3E3E"/>
</svg>
