<svg width="21" height="21" viewBox="0 0 21 21" fill="none" xmlns="http://www.w3.org/2000/svg">
<circle cx="10.5" cy="10.5" r="10" fill="white" stroke="#DBDBDB"/>
<path d="M9.03434 14.6519C8.91191 14.5295 8.84314 14.3634 8.84314 14.1902C8.84314 14.0171 8.91191 13.851 9.03434 13.7286L12.2669 10.496L9.03434 7.26352C8.91538 7.14035 8.84956 6.9754 8.85105 6.80417C8.85254 6.63295 8.92122 6.46916 9.04229 6.34808C9.16337 6.227 9.32716 6.15833 9.49838 6.15684C9.66961 6.15535 9.83457 6.22117 9.95773 6.34013L13.6519 10.0343C13.7744 10.1568 13.8431 10.3229 13.8431 10.496C13.8431 10.6692 13.7744 10.8353 13.6519 10.9577L9.95773 14.6519C9.83527 14.7744 9.6692 14.8431 9.49603 14.8431C9.32287 14.8431 9.1568 14.7744 9.03434 14.6519Z" fill="#598FF9"/>
</svg>
