<svg width="40" height="40" viewBox="0 0 40 40" fill="none" xmlns="http://www.w3.org/2000/svg">
<circle cx="20" cy="20" r="19.5" fill="white" stroke="#DBDBDB"/>
<path d="M22.9035 14.2745C23.0793 14.4503 23.178 14.6887 23.178 14.9373C23.178 15.1859 23.0793 15.4243 22.9035 15.6001L18.2629 20.2407L22.9035 24.8814C23.0743 25.0582 23.1688 25.295 23.1667 25.5408C23.1645 25.7866 23.0659 26.0217 22.8921 26.1956C22.7183 26.3694 22.4832 26.468 22.2374 26.4701C21.9916 26.4723 21.7547 26.3778 21.5779 26.207L16.2745 20.9035C16.0987 20.7277 16 20.4893 16 20.2407C16 19.9921 16.0987 19.7537 16.2745 19.5779L21.5779 14.2745C21.7537 14.0987 21.9921 14 22.2407 14C22.4893 14 22.7277 14.0987 22.9035 14.2745Z" fill="#3F3E3E"/>
</svg>
