<svg width="8" height="13" viewBox="0 0 8 13" fill="none" xmlns="http://www.w3.org/2000/svg">
<path d="M7.03781 0.533765C7.21357 0.709572 7.3123 0.947986 7.3123 1.19658C7.3123 1.44517 7.21357 1.68358 7.03781 1.85939L2.39719 6.50001L7.03781 11.1406C7.20858 11.3175 7.30308 11.5543 7.30094 11.8001C7.29881 12.0459 7.20021 12.281 7.02639 12.4548C6.85257 12.6287 6.61743 12.7273 6.37162 12.7294C6.12582 12.7315 5.889 12.637 5.71219 12.4663L0.408749 7.16283C0.232995 6.98702 0.134262 6.74861 0.134262 6.50001C0.134262 6.25142 0.232995 6.01301 0.408749 5.8372L5.71219 0.533765C5.88799 0.358011 6.12641 0.259277 6.375 0.259277C6.62359 0.259277 6.862 0.358011 7.03781 0.533765Z" fill="white"/>
</svg>
