<svg width="11" height="16" viewBox="0 0 11 16" fill="none" xmlns="http://www.w3.org/2000/svg">
<path d="M0.786105 15.5559C0.651139 15.5554 0.518556 15.5167 0.401137 15.4435C0.27978 15.3685 0.178729 15.2593 0.108326 15.1272C0.0379222 14.9951 0.000695397 14.8448 0.000455494 14.6916V2.01362C-0.0101652 1.49536 0.165306 0.993383 0.488841 0.616464C0.812376 0.239546 1.25791 0.0180573 1.72888 0H9.27112C9.74209 0.0180573 10.1876 0.239546 10.5112 0.616464C10.8347 0.993383 11.0102 1.49536 10.9995 2.01362V14.6916C10.9987 14.8425 10.962 14.9904 10.8931 15.1208C10.8242 15.2512 10.7255 15.3595 10.6067 15.4349C10.4873 15.5107 10.3518 15.5506 10.2139 15.5506C10.076 15.5506 9.9405 15.5107 9.82107 15.4349L5.36644 12.6607L1.17893 15.4262C1.06073 15.5069 0.925171 15.5517 0.786105 15.5559Z" fill="#3F3E3E"/>
</svg>
