<svg width="12" height="18" viewBox="0 0 12 18" fill="none" xmlns="http://www.w3.org/2000/svg">
<path d="M1.00008 17.25C0.856919 17.2495 0.716289 17.2085 0.591743 17.1308C0.463021 17.0512 0.355836 16.9355 0.28116 16.7953C0.206484 16.6552 0.166997 16.4958 0.166743 16.3333V2.88583C0.155478 2.33612 0.341599 1.80367 0.684771 1.40388C1.02794 1.00408 1.50052 0.769153 2.00008 0.75H10.0001C10.4996 0.769153 10.9722 1.00408 11.3154 1.40388C11.6586 1.80367 11.8447 2.33612 11.8334 2.88583V16.3333C11.8325 16.4933 11.7936 16.6502 11.7205 16.7885C11.6474 16.9268 11.5427 17.0417 11.4167 17.1217C11.2901 17.2021 11.1464 17.2445 11.0001 17.2445C10.8538 17.2445 10.7101 17.2021 10.5834 17.1217L5.85841 14.1792L1.41674 17.1125C1.29137 17.1981 1.14758 17.2456 1.00008 17.25Z" fill="#3F3E3E"/>
</svg>
