<svg width="17" height="24" viewBox="0 0 17 24" fill="none" xmlns="http://www.w3.org/2000/svg">
<path d="M1.30968 23.3767C1.11337 23.376 0.920524 23.3198 0.749731 23.2133C0.573213 23.1041 0.426229 22.9454 0.323824 22.7532C0.221419 22.561 0.167271 22.3424 0.166922 22.1197V3.6789C0.151474 2.92508 0.406705 2.19492 0.877302 1.64668C1.3479 1.09843 1.99595 0.776265 2.681 0.75H13.6515C14.3366 0.776265 14.9846 1.09843 15.4552 1.64668C15.9258 2.19492 16.181 2.92508 16.1656 3.6789V22.1197C16.1644 22.339 16.111 22.5542 16.0108 22.7439C15.9105 22.9335 15.7669 23.091 15.5942 23.2007C15.4205 23.311 15.2234 23.3691 15.0228 23.3691C14.8222 23.3691 14.6252 23.311 14.4515 23.2007L7.97199 19.1656L1.88107 23.1881C1.70914 23.3055 1.51196 23.3706 1.30968 23.3767Z" fill="#929292"/>
</svg>
