<svg width="21" height="22" viewBox="0 0 21 22" fill="none" xmlns="http://www.w3.org/2000/svg">
<path d="M5.99538 19.25C5.85222 19.2495 5.71159 19.2085 5.58704 19.1308C5.45832 19.0512 5.35114 18.9355 5.27646 18.7953C5.20178 18.6552 5.1623 18.4958 5.16204 18.3333V4.88583C5.15078 4.33612 5.3369 3.80367 5.68007 3.40388C6.02324 3.00408 6.49582 2.76915 6.99538 2.75H14.9954C15.4949 2.76915 15.9675 3.00408 16.3107 3.40388C16.6539 3.80367 16.84 4.33612 16.8287 4.88583V18.3333C16.8278 18.4933 16.7889 18.6502 16.7158 18.7885C16.6427 18.9268 16.538 19.0417 16.412 19.1217C16.2854 19.2021 16.1417 19.2445 15.9954 19.2445C15.8491 19.2445 15.7054 19.2021 15.5787 19.1217L10.8537 16.1792L6.41204 19.1125C6.28667 19.1981 6.14288 19.2456 5.99538 19.25V19.25Z" fill="#929292"/>
</svg>
