<svg width="13" height="15" viewBox="0 0 13 15" fill="none" xmlns="http://www.w3.org/2000/svg">
<path d="M8.86364 2.36364H12.4091C12.7354 2.36364 13 2.6282 13 2.95455C13 3.28089 12.7354 3.54545 12.4091 3.54545H11.7561L10.8663 11.5536C10.7001 13.0499 9.4354 14.1818 7.92989 14.1818H5.07009C3.56461 14.1818 2.29988 13.0499 2.13362 11.5536L1.24383 3.54545H0.590909C0.264562 3.54545 0 3.28089 0 2.95455C0 2.6282 0.264562 2.36364 0.590909 2.36364H4.13636C4.13636 1.05824 5.1946 0 6.5 0C7.8054 0 8.86364 1.05824 8.86364 2.36364ZM6.5 1.18182C5.84731 1.18182 5.31818 1.71094 5.31818 2.36364H7.68182C7.68182 1.71094 7.15271 1.18182 6.5 1.18182ZM4.72727 5.90909V10.6364C4.72727 10.9627 4.99183 11.2273 5.31818 11.2273C5.64453 11.2273 5.90909 10.9627 5.90909 10.6364V5.90909C5.90909 5.58274 5.64453 5.31818 5.31818 5.31818C4.99183 5.31818 4.72727 5.58274 4.72727 5.90909ZM7.68182 5.31818C7.35547 5.31818 7.09091 5.58274 7.09091 5.90909V10.6364C7.09091 10.9627 7.35547 11.2273 7.68182 11.2273C8.00817 11.2273 8.27273 10.9627 8.27273 10.6364V5.90909C8.27273 5.58274 8.00817 5.31818 7.68182 5.31818Z" fill="#598FF9"/>
</svg>
