<svg width="15" height="15" viewBox="0 0 15 15" fill="none" xmlns="http://www.w3.org/2000/svg">
<path fill-rule="evenodd" clip-rule="evenodd" d="M1.40109 8.18182H0V6.81818H1.40109C1.71551 3.9739 3.9739 1.71551 6.81818 1.40109V0H8.18182V1.40109C11.0261 1.71551 13.2845 3.9739 13.5989 6.81818H15V8.18182H13.5989C13.2845 11.0261 11.0261 13.2845 8.18182 13.5989V15H6.81818V13.5989C3.9739 13.2845 1.71551 11.0261 1.40109 8.18182ZM7.5 2.72727C4.8641 2.72727 2.72727 4.8641 2.72727 7.5C2.72727 10.1359 4.8641 12.2727 7.5 12.2727C10.1359 12.2727 12.2727 10.1359 12.2727 7.5C12.2727 4.8641 10.1359 2.72727 7.5 2.72727ZM7.5 4.77273C9.00623 4.77273 10.2273 5.99377 10.2273 7.5C10.2273 9.00623 9.00623 10.2273 7.5 10.2273C5.99377 10.2273 4.77273 9.00623 4.77273 7.5C4.77273 5.99377 5.99377 4.77273 7.5 4.77273ZM7.5 6.13636C6.74688 6.13636 6.13636 6.74688 6.13636 7.5C6.13636 8.25312 6.74688 8.86364 7.5 8.86364C8.25312 8.86364 8.86364 8.25312 8.86364 7.5C8.86364 6.74688 8.25312 6.13636 7.5 6.13636Z" fill="#ED6900"/>
</svg>
