<svg width="20" height="20" viewBox="0 0 20 20" fill="none" xmlns="http://www.w3.org/2000/svg">
<circle cx="10" cy="10" r="10" fill="#598FF9"/>
<path d="M9.20576 16.2478C5.65845 11.1052 5 10.5775 5 8.6875C5 6.09866 7.09866 4 9.6875 4C12.2763 4 14.375 6.09866 14.375 8.6875C14.375 10.5775 13.7166 11.1052 10.1692 16.2478C9.93645 16.5841 9.43852 16.5841 9.20576 16.2478ZM9.6875 10.6406C10.7662 10.6406 11.6406 9.76619 11.6406 8.6875C11.6406 7.60881 10.7662 6.73437 9.6875 6.73437C8.60881 6.73437 7.73437 7.60881 7.73437 8.6875C7.73437 9.76619 8.60881 10.6406 9.6875 10.6406Z" fill="white"/>
</svg>
