<svg width="16" height="20" viewBox="0 0 16 20" fill="none" xmlns="http://www.w3.org/2000/svg">
<path d="M6.74027 19.5965C1.06456 11.3684 0.0110474 10.5239 0.0110474 7.5C0.0110474 3.35785 3.3689 0 7.51105 0C11.6532 0 15.011 3.35785 15.011 7.5C15.011 10.5239 13.9575 11.3684 8.28183 19.5965C7.90937 20.1345 7.11269 20.1345 6.74027 19.5965ZM7.51105 10.625C9.23695 10.625 10.636 9.2259 10.636 7.5C10.636 5.7741 9.23695 4.375 7.51105 4.375C5.78515 4.375 4.38605 5.7741 4.38605 7.5C4.38605 9.2259 5.78515 10.625 7.51105 10.625Z" fill="#929292"/>
</svg>
