<svg width="14" height="15" viewBox="0 0 14 15" fill="none" xmlns="http://www.w3.org/2000/svg">
<path d="M3.91104 1.3L9.11104 1.95V14.3L3.91104 13.65V1.3Z" fill="#ECF0F1"/>
<path d="M0.0110474 1.95L3.91105 1.3V13.65L0.0110474 14.3V1.95Z" fill="#BDC3C7"/>
<path d="M9.11105 1.95L13.0111 1.3V13.65L9.11105 14.3V1.95Z" fill="#BDC3C7"/>
<path d="M0.661041 2.6L3.91104 1.95V13L0.661041 13.65V2.6Z" fill="#27AE60"/>
<path d="M3.91104 1.95L9.11104 2.6V13.65L3.91104 13V1.95Z" fill="#2ECC71"/>
<path d="M7.16106 0.649994C6.08401 0.649994 5.21106 1.52307 5.21106 2.59999C5.21106 3.67691 6.08401 4.54999 7.16106 4.54999C8.23811 4.54999 9.11106 3.67691 9.11106 2.59999C9.11106 1.52307 8.23811 0.649994 7.16106 0.649994ZM7.16106 1.94999C7.51986 1.94999 7.81106 2.241 7.81106 2.59999C7.81106 2.95899 7.51986 3.24999 7.16106 3.24999C6.80226 3.24999 6.51106 2.95899 6.51106 2.59999C6.51106 2.241 6.80226 1.94999 7.16106 1.94999Z" fill="#C0392B"/>
<path d="M12.3611 13L9.11105 13.65V2.6L12.3611 1.95V13Z" fill="#27AE60"/>
<path d="M2.40793 2.21002L0.9048 2.53502L3.91105 5.71996V3.83502L2.40793 2.21002Z" fill="#F39C12"/>
<path d="M12.3611 11.7L9.11105 12.35V8.45L12.3611 6.5V11.7Z" fill="#F39C12"/>
<path d="M12.3611 13L9.11105 13.65V9.75L12.3611 7.8V13Z" fill="#2980B9"/>
<path d="M3.91104 9.1L9.11104 8.45V12.35L3.91104 11.7V9.1Z" fill="#F1C40F"/>
<path d="M3.91104 10.4L9.11104 9.75V13.65L3.91104 13V10.4Z" fill="#3498DB"/>
<path d="M0.661041 11.05L3.91104 9.10001V11.7L0.661041 12.35V11.05Z" fill="#F39C12"/>
<path d="M0.661041 12.35L3.91104 10.4V13L0.661041 13.65V12.35Z" fill="#2980B9"/>
<path d="M3.91104 5.72047V3.83644L6.51104 9.46525H5.55619L3.91104 5.72047Z" fill="#F1C40F"/>
<path d="M7.16104 0C5.72519 0 4.56104 1.17 4.56104 2.6C4.56104 3.055 4.68506 3.44502 4.89618 3.83502C4.93121 3.90002 4.968 3.96497 5.00791 4.02997L7.16104 7.8L9.31384 4.02997C9.34699 3.96497 9.37558 3.9 9.40548 3.9L9.42563 3.83502C9.63688 3.44502 9.76103 3.055 9.76103 2.6C9.76103 1.17 8.59689 0 7.16104 0ZM7.16104 1.3C7.87929 1.3 8.46104 1.885 8.46104 2.6C8.46104 3.315 7.87929 3.9 7.16104 3.9C6.44279 3.9 5.86104 3.315 5.86104 2.6C5.86104 1.885 6.44279 1.3 7.16104 1.3Z" fill="#E74C3C"/>
</svg>
