<svg width="21" height="21" viewBox="0 0 21 21" fill="none" xmlns="http://www.w3.org/2000/svg">
<path d="M13.2539 9.81767C15.7083 9.81767 17.6718 11.7812 17.6718 14.2356C17.6718 15.0996 17.4264 15.9046 16.9944 16.5919L20.0182 19.6353L18.6536 21L15.5905 17.986C14.913 18.4081 14.108 18.6536 13.2539 18.6536C10.7994 18.6536 8.83591 16.69 8.83591 14.2356C8.83591 11.7812 10.7994 9.81767 13.2539 9.81767ZM13.2539 11.7812C12.6029 11.7812 11.9786 12.0398 11.5183 12.5001C11.058 12.9604 10.7994 13.5847 10.7994 14.2356C10.7994 14.8866 11.058 15.5109 11.5183 15.9712C11.9786 16.4315 12.6029 16.69 13.2539 16.69C13.9048 16.69 14.5291 16.4315 14.9894 15.9712C15.4497 15.5109 15.7083 14.8866 15.7083 14.2356C15.7083 13.5847 15.4497 12.9604 14.9894 12.5001C14.5291 12.0398 13.9048 11.7812 13.2539 11.7812ZM17.1809 0C17.3111 0 17.436 0.051718 17.528 0.143777C17.6201 0.235835 17.6718 0.360693 17.6718 0.490884V9.63114C17.1024 9.09116 16.4446 8.64937 15.7083 8.34502V2.65077L12.763 3.78962V7.85414C12.0757 7.92286 11.4081 8.08976 10.7994 8.34502V3.79944L6.87237 2.42496V13.8724V14.2356C6.87237 14.864 6.96073 15.4727 7.12763 16.0421L5.8906 15.6101L0.647967 17.6424L0.490884 17.6718C0.360693 17.6718 0.235835 17.6201 0.143777 17.528C0.051718 17.436 0 17.3111 0 17.1809V2.33661C0 2.1108 0.147265 1.93408 0.353436 1.86536L5.8906 0L11.7812 2.06171L17.0238 0.029453L17.1809 0ZM1.96353 3.39691V15.0309L4.90884 13.892V2.40533L1.96353 3.39691Z" fill="#598FF9"/>
</svg>
