<svg width="18" height="19" viewBox="0 0 18 19" fill="none" xmlns="http://www.w3.org/2000/svg">
<path d="M11.9176 8.82786C14.1246 8.82786 15.8901 10.5934 15.8901 12.8004C15.8901 13.5772 15.6694 14.3011 15.281 14.9191L18 17.6557L16.7729 18.8828L14.0186 16.1726C13.4095 16.5522 12.6856 16.7729 11.9176 16.7729C9.71064 16.7729 7.94507 15.0074 7.94507 12.8004C7.94507 10.5934 9.71064 8.82786 11.9176 8.82786ZM11.9176 10.5934C11.3323 10.5934 10.7709 10.8259 10.357 11.2398C9.94316 11.6537 9.71064 12.2151 9.71064 12.8004C9.71064 13.3857 9.94316 13.9471 10.357 14.361C10.7709 14.7748 11.3323 15.0074 11.9176 15.0074C12.5029 15.0074 13.0643 14.7748 13.4782 14.361C13.8921 13.9471 14.1246 13.3857 14.1246 12.8004C14.1246 12.2151 13.8921 11.6537 13.4782 11.2398C13.0643 10.8259 12.5029 10.5934 11.9176 10.5934ZM15.4487 0C15.5658 0 15.6781 0.0465038 15.7609 0.129281C15.8436 0.212058 15.8901 0.324328 15.8901 0.441393V8.66013C15.3781 8.1746 14.7867 7.77734 14.1246 7.50368V2.38352L11.4762 3.40755V7.06228C10.8583 7.12408 10.258 7.27415 9.71064 7.50368V3.41638L6.1795 2.18048V12.4738V12.8004C6.1795 13.3654 6.25895 13.9127 6.40902 14.4247L5.29671 14.0363L0.582639 15.8637L0.441393 15.8901C0.324328 15.8901 0.212058 15.8436 0.129281 15.7609C0.0465038 15.6781 0 15.5658 0 15.4487V2.10103C0 1.89799 0.132418 1.73909 0.317803 1.67729L5.29671 0L10.5934 1.85385L15.3075 0.0264835L15.4487 0ZM1.76557 3.05444V13.5154L4.41393 12.4914V2.16282L1.76557 3.05444Z" fill="#598FF9"/>
</svg>
