<svg width="35" height="17" viewBox="0 0 35 17" fill="none" xmlns="http://www.w3.org/2000/svg">
<path d="M26.4992 5.35725C26.4992 5.35725 22.3359 1.34788 19.3727 0.488423C16.4095 -0.371034 4.65791 0.619551 4.26452 0.870404C3.87114 1.12126 1.51512 3.6982 1.0576 4.73725C0.600074 5.77629 0.630005 7.34983 0.729776 7.85011C0.761625 8.08988 0.839547 8.32122 0.95925 8.5314C0.95925 8.5314 0.246599 8.49577 0.173908 8.88915C0.101218 9.28254 0.173908 11.6813 0.173908 12.1816C0.173908 12.6819 0.567292 13.0368 1.0576 13.148C1.5479 13.2591 7.17642 13.148 7.17642 13.148C7.17642 13.148 7.63394 13.8292 7.83063 13.8292H34.6135C35.2021 13.8292 34.5807 13.0054 34.4168 13.0054C34.4168 13.0054 34.8102 9.99804 34.5807 9.81987L34.3512 9.63316C34.3685 9.33355 34.3084 9.03454 34.1766 8.76493C34.0448 8.49532 33.8457 8.26419 33.5987 8.09383C32.7535 7.52086 30.2392 6.41625 26.4992 5.35725Z" fill="#598FF9"/>
<path d="M34.6135 13.9647H7.82919C7.61825 13.9647 7.32464 13.6084 7.10086 13.2848C6.24568 13.3019 1.50085 13.3846 1.02623 13.2848C0.430453 13.1551 0.0285177 12.7147 0.0285177 12.1788C0.0285177 12.0519 0.028517 11.8011 0.0199652 11.4904C-0.00141436 10.2675 -0.0156671 9.14576 0.0313678 8.86212C0.084104 8.54286 0.431878 8.4217 0.731192 8.39177C0.668476 8.22435 0.620777 8.05169 0.588661 7.87581C0.491741 7.37838 0.44613 5.75354 0.926457 4.67601C1.40678 3.59848 3.75426 1.02296 4.18612 0.747881C4.47118 0.571144 7.9931 0.264703 10.8437 0.117897C13.3095 -0.00752965 17.7023 -0.144358 19.4083 0.348796C22.286 1.1826 26.1857 4.85703 26.5719 5.22618C30.1879 6.25667 32.7534 7.35273 33.6785 7.97558C33.9369 8.15137 34.1472 8.38898 34.2903 8.66679C34.4335 8.94459 34.5048 9.25378 34.498 9.56622L34.6691 9.7002C34.86 9.84986 34.8273 10.9317 34.5721 12.9143C34.776 13.0568 34.9997 13.4046 34.9997 13.6269C35.0017 13.673 34.9931 13.7189 34.9746 13.7612C34.956 13.8034 34.9281 13.8409 34.8928 13.8706C34.8138 13.9341 34.7148 13.9675 34.6135 13.9647ZM7.17498 12.9983C7.19846 12.9985 7.22154 13.0044 7.24218 13.0156C7.26281 13.0268 7.28037 13.0429 7.29328 13.0625C7.49995 13.3689 7.75508 13.6568 7.83775 13.6796H34.6135C34.6234 13.6796 34.7118 13.6796 34.7175 13.6511C34.7446 13.5157 34.4952 13.1865 34.3982 13.1395C34.3608 13.1345 34.3269 13.1149 34.304 13.085C34.281 13.055 34.2708 13.0172 34.2757 12.9798C34.451 11.6386 34.5736 10.1392 34.4795 9.914L34.2643 9.74581C34.2452 9.73098 34.2303 9.71156 34.2208 9.68937C34.2113 9.66719 34.2077 9.64296 34.2101 9.61896C34.2259 9.34478 34.1705 9.07118 34.0494 8.8247C33.9283 8.57822 33.7455 8.36723 33.5188 8.21219C32.6337 7.61641 30.0468 6.50895 26.4607 5.48701C26.4383 5.48068 26.4177 5.46893 26.4009 5.4528C26.3595 5.41289 22.2276 1.46196 19.33 0.618178C16.3197 -0.252681 4.73486 0.79634 4.33435 0.987331C3.96235 1.22393 1.62343 3.7966 1.18729 4.78719C0.736892 5.80485 0.776801 7.3456 0.869446 7.81595C0.899952 8.0351 0.969463 8.24702 1.07469 8.44166C1.08993 8.46364 1.09868 8.48946 1.09995 8.51618C1.10121 8.54289 1.09492 8.56943 1.08182 8.59274C1.06906 8.61611 1.05002 8.63544 1.02684 8.64854C1.00367 8.66164 0.977286 8.66798 0.950688 8.66686C0.796755 8.65831 0.349211 8.68681 0.313578 8.90488C0.266543 9.18994 0.290772 10.6224 0.305026 11.4818C0.305026 11.794 0.315004 12.0519 0.315004 12.1745C0.315004 12.575 0.618592 12.9 1.08609 13.0026C1.4752 13.0867 5.61142 13.0283 7.17213 13.0026L7.17498 12.9983Z" fill="#093F68"/>
<path d="M15.6114 5.51122L15.1196 1.28662C15.1196 1.28662 18.2938 1.57168 20.0612 2.1418C21.8285 2.71192 23.66 4.07451 23.9879 4.72302C24.3157 5.37154 24.2501 5.9046 23.9879 6.0058C23.7256 6.10699 15.6114 5.51122 15.6114 5.51122Z" fill="white"/>
<path d="M23.757 6.16113C22.5298 6.16113 17.7707 5.81621 15.6 5.6523C15.567 5.64988 15.5358 5.63604 15.5119 5.61315C15.488 5.59026 15.4727 5.55976 15.4689 5.52688L14.9785 1.30371C14.976 1.28248 14.9783 1.26095 14.9852 1.24072C14.9921 1.22049 15.0035 1.20207 15.0185 1.18683C15.0333 1.17198 15.0511 1.16057 15.0709 1.15343C15.0906 1.14629 15.1116 1.14358 15.1325 1.1455C15.2636 1.1569 18.3437 1.43911 20.1054 2.01065C21.8228 2.56795 23.7456 3.93196 24.1147 4.65887C24.3428 5.10641 24.4112 5.55396 24.2986 5.85612C24.2782 5.91895 24.2448 5.97679 24.2006 6.0259C24.1564 6.075 24.1024 6.11428 24.042 6.14118C23.9481 6.15843 23.8525 6.16512 23.757 6.16113ZM15.7397 5.37722C18.9152 5.61524 23.6387 5.93594 23.9465 5.87607C23.9881 5.84728 24.0183 5.80496 24.0321 5.75635C24.0976 5.58104 24.0862 5.23326 23.861 4.78857C23.5589 4.19422 21.773 2.85016 20.0127 2.28146C18.5176 1.79686 15.9649 1.51465 15.2779 1.44624L15.7397 5.37722Z" fill="#093F68"/>
<path d="M23.536 6.65571C23.4319 6.64859 23.7655 4.14148 23.7655 4.14148C23.7655 4.14148 24.8444 4.4636 25.1722 5.24894C25.5 6.03428 25.0083 6.75406 23.536 6.65571Z" fill="#093F68"/>
<path d="M23.7911 6.80688C23.7056 6.80688 23.6172 6.80403 23.526 6.79833C23.485 6.79397 23.4473 6.77408 23.4205 6.74274C23.3735 6.68715 23.2965 6.59166 23.6229 4.12303C23.6258 4.10277 23.6331 4.08338 23.6441 4.06616C23.6552 4.04894 23.6698 4.03431 23.6871 4.02326C23.7044 4.01202 23.7239 4.00466 23.7443 4.00171C23.7648 3.99876 23.7856 4.00027 23.8054 4.00616C23.8524 4.01899 24.9542 4.35536 25.3034 5.19344C25.3866 5.36175 25.4241 5.54899 25.4121 5.73637C25.4001 5.92375 25.339 6.10468 25.2349 6.26099C24.9798 6.61731 24.4724 6.80688 23.7911 6.80688ZM23.6571 6.52182C24.3128 6.54747 24.7874 6.39782 25.0026 6.09423C25.0772 5.97704 25.1199 5.8424 25.1264 5.70364C25.1329 5.56488 25.103 5.42683 25.0397 5.30318C24.8145 4.76299 24.1845 4.448 23.8838 4.3354C23.764 5.25472 23.66 6.21253 23.6571 6.51897V6.52182Z" fill="#093F68"/>
<path d="M14.2044 5.40289L14.0077 1.28662C14.0077 1.28662 7.92169 1.28662 7.3644 1.57168C6.80711 1.85674 5.0098 3.29202 5.07394 3.93198C5.13808 4.57194 6.15432 4.68311 6.44935 4.8627C6.74439 5.04229 14.2044 5.40289 14.2044 5.40289Z" fill="white"/>
<path d="M14.2045 5.5455H14.1974C12.4385 5.4614 6.67747 5.17207 6.37531 4.9882C6.26982 4.93711 6.16014 4.89515 6.04749 4.86278C5.6199 4.72025 4.98991 4.515 4.9329 3.95058C4.85594 3.18805 6.7858 1.71143 7.30033 1.44633C7.87045 1.15272 13.3807 1.14417 14.0078 1.14417C14.0456 1.14417 14.0819 1.15918 14.1086 1.18591C14.1353 1.21264 14.1503 1.24889 14.1503 1.2867L14.3456 5.40439C14.3456 5.44219 14.3306 5.47845 14.3039 5.50518C14.2771 5.53191 14.2409 5.54692 14.2031 5.54692L14.2045 5.5455ZM13.8724 1.42923C11.438 1.42923 7.80916 1.50477 7.43003 1.70003C6.81715 2.01645 5.1638 3.41039 5.21654 3.92208C5.25502 4.30263 5.7439 4.46227 6.13586 4.59197C6.27139 4.62923 6.40274 4.68033 6.52782 4.74448C6.82285 4.8642 11.1344 5.1122 14.0577 5.25331L13.8724 1.42923Z" fill="#093F68"/>
<path d="M6.69169 16.2424C8.56202 16.2424 10.0782 14.7262 10.0782 12.8559C10.0782 10.9856 8.56202 9.46936 6.69169 9.46936C4.82137 9.46936 3.30518 10.9856 3.30518 12.8559C3.30518 14.7262 4.82137 16.2424 6.69169 16.2424Z" fill="#093F68"/>
<path d="M6.69185 16.3863C5.99359 16.3863 5.31101 16.1792 4.73043 15.7913C4.14984 15.4033 3.69733 14.852 3.43012 14.2068C3.16291 13.5617 3.09299 12.8519 3.22922 12.167C3.36544 11.4822 3.70168 10.8531 4.19543 10.3594C4.68918 9.86563 5.31825 9.52938 6.00309 9.39316C6.68793 9.25693 7.3978 9.32685 8.04291 9.59406C8.68801 9.86127 9.2394 10.3138 9.62733 10.8944C10.0153 11.4749 10.2223 12.1575 10.2223 12.8558C10.2216 13.7919 9.84937 14.6895 9.18744 15.3514C8.52551 16.0133 7.62796 16.3855 6.69185 16.3863ZM6.69185 9.61181C6.04991 9.61181 5.42238 9.80218 4.88865 10.1589C4.35491 10.5155 3.93894 11.0225 3.69334 11.6156C3.44775 12.2087 3.38356 12.8613 3.5089 13.4909C3.63424 14.1205 3.94348 14.6988 4.3975 15.1526C4.85152 15.6064 5.42993 15.9154 6.05958 16.0404C6.68922 16.1655 7.34181 16.101 7.9348 15.8552C8.5278 15.6093 9.03457 15.1931 9.39101 14.6592C9.74745 14.1253 9.93755 13.4977 9.93726 12.8558C9.93613 11.9955 9.5938 11.1709 8.98537 10.5627C8.37694 9.95453 7.55211 9.61256 6.69185 9.61181Z" fill="#093F68"/>
<path d="M6.69167 14.7957C7.76301 14.7957 8.6315 13.9272 8.6315 12.8559C8.6315 11.7845 7.76301 10.916 6.69167 10.916C5.62033 10.916 4.75183 11.7845 4.75183 12.8559C4.75183 13.9272 5.62033 14.7957 6.69167 14.7957Z" fill="white"/>
<path d="M6.69174 14.9382C6.27989 14.9382 5.87728 14.816 5.53484 14.5872C5.1924 14.3584 4.9255 14.0332 4.76789 13.6527C4.61028 13.2722 4.56904 12.8535 4.64939 12.4496C4.72974 12.0456 4.92806 11.6746 5.21929 11.3833C5.51051 11.0921 5.88155 10.8938 6.28549 10.8135C6.68943 10.7331 7.10813 10.7743 7.48863 10.9319C7.86913 11.0896 8.19435 11.3565 8.42317 11.6989C8.65198 12.0413 8.77411 12.444 8.77411 12.8558C8.77373 13.408 8.55422 13.9374 8.16378 14.3278C7.77334 14.7183 7.2439 14.9378 6.69174 14.9382ZM6.69174 11.0599C6.33621 11.0599 5.98866 11.1654 5.69306 11.3629C5.39747 11.5605 5.1671 11.8413 5.03111 12.1698C4.89512 12.4983 4.85961 12.8597 4.92908 13.2084C4.99854 13.5571 5.16986 13.8773 5.42136 14.1286C5.67286 14.3799 5.99324 14.551 6.34198 14.6202C6.69072 14.6894 7.05214 14.6536 7.38053 14.5173C7.70892 14.3811 7.98952 14.1505 8.18684 13.8547C8.38416 13.559 8.48933 13.2113 8.48905 12.8558C8.48905 12.3791 8.29969 11.922 7.96263 11.5849C7.62557 11.2479 7.16842 11.0585 6.69174 11.0585V11.0599Z" fill="white"/>
<path d="M26.3311 16.2424C28.2014 16.2424 29.7176 14.7262 29.7176 12.8559C29.7176 10.9856 28.2014 9.46936 26.3311 9.46936C24.4608 9.46936 22.9446 10.9856 22.9446 12.8559C22.9446 14.7262 24.4608 16.2424 26.3311 16.2424Z" fill="#093F68"/>
<path d="M26.3311 16.3863C25.6329 16.3863 24.9503 16.1792 24.3697 15.7913C23.7891 15.4033 23.3366 14.852 23.0694 14.2068C22.8022 13.5617 22.7323 12.8519 22.8685 12.167C23.0047 11.4822 23.341 10.8531 23.8347 10.3594C24.3285 9.86563 24.9575 9.52938 25.6424 9.39316C26.3272 9.25693 27.0371 9.32685 27.6822 9.59406C28.3273 9.86127 28.8787 10.3138 29.2666 10.8944C29.6545 11.4749 29.8616 12.1575 29.8616 12.8558C29.8608 13.7919 29.4886 14.6895 28.8267 15.3514C28.1648 16.0133 27.2672 16.3855 26.3311 16.3863ZM26.3311 9.61181C25.6892 9.61181 25.0617 9.80218 24.5279 10.1589C23.9942 10.5155 23.5782 11.0225 23.3326 11.6156C23.087 12.2087 23.0228 12.8613 23.1482 13.4909C23.2735 14.1205 23.5828 14.6988 24.0368 15.1526C24.4908 15.6064 25.0692 15.9154 25.6989 16.0404C26.3285 16.1655 26.9811 16.101 27.5741 15.8552C28.1671 15.6093 28.6738 15.1931 29.0303 14.6592C29.3867 14.1253 29.5768 13.4977 29.5765 12.8558C29.5754 11.9955 29.2331 11.1709 28.6246 10.5627C28.0162 9.95453 27.1914 9.61256 26.3311 9.61181Z" fill="#093F68"/>
<path d="M26.3311 14.7957C27.4024 14.7957 28.2709 13.9272 28.2709 12.8559C28.2709 11.7845 27.4024 10.916 26.3311 10.916C25.2597 10.916 24.3912 11.7845 24.3912 12.8559C24.3912 13.9272 25.2597 14.7957 26.3311 14.7957Z" fill="white"/>
<path d="M26.3309 14.9382C25.919 14.9382 25.5164 14.816 25.174 14.5872C24.8316 14.3584 24.5647 14.0332 24.407 13.6527C24.2494 13.2722 24.2082 12.8535 24.2885 12.4496C24.3689 12.0456 24.5672 11.6746 24.8584 11.3833C25.1497 11.0921 25.5207 10.8938 25.9247 10.8135C26.3286 10.7331 26.7473 10.7743 27.1278 10.9319C27.5083 11.0896 27.8335 11.3565 28.0623 11.6989C28.2911 12.0413 28.4133 12.444 28.4133 12.8558C28.4129 13.408 28.1934 13.9374 27.8029 14.3278C27.4125 14.7183 26.8831 14.9378 26.3309 14.9382ZM26.3309 11.0599C25.9754 11.0599 25.6278 11.1654 25.3322 11.3629C25.0366 11.5605 24.8063 11.8413 24.6703 12.1698C24.5343 12.4983 24.4988 12.8597 24.5682 13.2084C24.6377 13.5571 24.809 13.8773 25.0605 14.1286C25.312 14.3799 25.6324 14.551 25.9811 14.6202C26.3299 14.6894 26.6913 14.6536 27.0197 14.5173C27.3481 14.3811 27.6287 14.1505 27.826 13.8547C28.0233 13.559 28.1285 13.2113 28.1282 12.8558C28.1282 12.6198 28.0817 12.3861 27.9914 12.168C27.9011 11.9499 27.7687 11.7518 27.6018 11.5849C27.4349 11.418 27.2368 11.2856 27.0187 11.1953C26.8006 11.105 26.5669 11.0585 26.3309 11.0585V11.0599Z" fill="#093F68"/>
<path d="M1.6476 5.08929C1.51542 5.39166 1.40677 5.70378 1.32263 6.02286C1.18865 6.80963 1.1801 7.5907 1.26562 7.66339C1.35113 7.73608 2.18208 7.71897 2.28043 7.66339C2.37878 7.6078 3.05437 6.38062 3.13561 6.11551C3.21685 5.8504 3.39217 5.30736 3.23681 5.19904C3.08145 5.09072 1.8001 4.93678 1.6476 5.08929Z" fill="#FFBC0E"/>
<path d="M1.70607 7.85587C1.2685 7.85587 1.20436 7.79886 1.17158 7.77178C0.929279 7.55941 1.18013 6.01438 1.18298 5.99871C1.26812 5.66865 1.37966 5.34596 1.5165 5.03378C1.52361 5.0173 1.53377 5.0023 1.54644 4.98959C1.76878 4.76724 3.14277 4.95538 3.32379 5.08224C3.5048 5.20909 3.49055 5.52123 3.27675 6.15977C3.22116 6.32795 2.52562 7.69054 2.34888 7.78888C2.16052 7.84052 1.96538 7.86311 1.77021 7.85587H1.70607ZM1.37112 7.55228C1.64814 7.58034 1.92748 7.57603 2.2035 7.53946C2.50797 7.07075 2.77623 6.5795 3.00594 6.06997C3.19836 5.49985 3.167 5.34307 3.14847 5.31314C2.96461 5.22049 1.97117 5.11929 1.75453 5.18913C1.63324 5.4659 1.53411 5.75186 1.45807 6.04432C1.36201 6.54085 1.33277 7.048 1.37112 7.55228Z" fill="#093F68"/>
<path d="M33.6912 9.84982C33.6912 9.84982 33.6171 9.00319 33.1924 8.77372C32.7677 8.54424 31.1214 7.88575 31.0088 8.18079C30.8962 8.47583 31.7286 9.522 31.941 9.70159C32.1533 9.88118 33.6912 9.84982 33.6912 9.84982Z" fill="#FFBC0E"/>
<path d="M33.3498 9.99517C32.8053 9.99517 32.0342 9.96666 31.8489 9.8113C31.7192 9.70013 30.7087 8.55134 30.8755 8.12945C30.8884 8.09612 30.9085 8.06607 30.9343 8.04143C30.9602 8.01678 30.9912 7.99817 31.0251 7.98692C31.4598 7.82586 33.0205 8.51428 33.26 8.64541C33.7403 8.90339 33.8301 9.74004 33.8301 9.83411C33.8317 9.85341 33.8294 9.87285 33.8233 9.89123C33.8172 9.90961 33.8074 9.92654 33.7945 9.94101C33.7814 9.95585 33.7655 9.96783 33.7475 9.97617C33.7296 9.98451 33.7102 9.98904 33.6904 9.98946L33.3498 9.99517ZM31.1391 8.2506C31.1277 8.47437 31.7634 9.36376 32.0342 9.59323C32.1468 9.6759 32.868 9.71581 33.5294 9.70868C33.4823 9.44357 33.364 9.02739 33.1246 8.89911C32.6015 8.6169 31.3814 8.18361 31.1391 8.2506Z" fill="#093F68"/>
<path d="M1.85484 9.12149H0.958326C0.920525 9.12149 0.884272 9.10647 0.857542 9.07974C0.830812 9.05301 0.815796 9.01676 0.815796 8.97896C0.815796 8.94115 0.830812 8.9049 0.857542 8.87817C0.884272 8.85144 0.920525 8.83643 0.958326 8.83643H1.85484C1.89264 8.83643 1.9289 8.85144 1.95563 8.87817C1.98235 8.9049 1.99737 8.94115 1.99737 8.97896C1.99737 9.01676 1.98235 9.05301 1.95563 9.07974C1.9289 9.10647 1.89264 9.12149 1.85484 9.12149Z" fill="#093F68"/>
<path d="M18.8329 7.12185H17.1481C17.1103 7.12185 17.0741 7.10684 17.0474 7.08011C17.0206 7.05338 17.0056 7.01712 17.0056 6.97932C17.0056 6.94152 17.0206 6.90527 17.0474 6.87854C17.0741 6.85181 17.1103 6.83679 17.1481 6.83679H18.8329C18.8707 6.83679 18.9069 6.85181 18.9336 6.87854C18.9604 6.90527 18.9754 6.94152 18.9754 6.97932C18.9754 7.01712 18.9604 7.05338 18.9336 7.08011C18.9069 7.10684 18.8707 7.12185 18.8329 7.12185Z" fill="#093F68"/>
<path d="M13.1587 7.12185H11.474C11.4361 7.12185 11.3999 7.10684 11.3732 7.08011C11.3464 7.05338 11.3314 7.01712 11.3314 6.97932C11.3314 6.94152 11.3464 6.90527 11.3732 6.87854C11.3999 6.85181 11.4361 6.83679 11.474 6.83679H13.1587C13.1965 6.83679 13.2327 6.85181 13.2594 6.87854C13.2862 6.90527 13.3012 6.94152 13.3012 6.97932C13.3012 7.01712 13.2862 7.05338 13.2594 7.08011C13.2327 7.10684 13.1965 7.12185 13.1587 7.12185Z" fill="#093F68"/>
<path d="M15.378 13.6041C15.3402 13.6041 15.3039 13.5891 15.2772 13.5623C15.2505 13.5356 15.2355 13.4994 15.2355 13.4616V7.41542C15.2355 7.20875 14.6525 6.27518 14.0881 5.48699C14.066 5.45618 14.057 5.41785 14.0632 5.38043C14.0693 5.34301 14.0901 5.30956 14.1209 5.28745C14.1517 5.26533 14.19 5.25636 14.2274 5.26251C14.2649 5.26866 14.2983 5.28942 14.3204 5.32023C14.52 5.60529 15.5205 7.01491 15.5205 7.41542V13.4616C15.5205 13.4994 15.5055 13.5356 15.4788 13.5623C15.4521 13.5891 15.4158 13.6041 15.378 13.6041Z" fill="#093F68"/>
<path d="M8.63164 3.79798C8.6069 3.79798 8.58259 3.79154 8.5611 3.77929C8.53961 3.76705 8.52168 3.74942 8.50906 3.72815C8.48979 3.69563 8.48422 3.6568 8.49357 3.62018C8.50293 3.58357 8.52644 3.55216 8.55895 3.53288L11.4024 1.861C11.4186 1.84927 11.437 1.84106 11.4565 1.83689C11.476 1.83272 11.4961 1.83269 11.5156 1.8368C11.5352 1.84092 11.5536 1.84908 11.5698 1.86076C11.5859 1.87244 11.5994 1.88739 11.6095 1.90463C11.6195 1.92187 11.6258 1.94103 11.6279 1.96085C11.6301 1.98068 11.6281 2.00074 11.622 2.01973C11.6159 2.03872 11.6059 2.05623 11.5926 2.07112C11.5794 2.086 11.5631 2.09794 11.545 2.10615L8.7029 3.77803C8.68132 3.79084 8.65673 3.79772 8.63164 3.79798Z" fill="#DFEAEF"/>
<path d="M10.5188 4.6546C10.4949 4.65456 10.4715 4.64853 10.4506 4.63708C10.4296 4.62562 10.4119 4.6091 10.399 4.58903C10.3786 4.55744 10.3714 4.51902 10.3791 4.48216C10.3869 4.44531 10.4089 4.41302 10.4404 4.39234L12.2363 3.22502C12.268 3.20442 12.3067 3.19727 12.3437 3.20516C12.3807 3.21304 12.4131 3.23531 12.4337 3.26706C12.4543 3.29882 12.4614 3.33746 12.4535 3.37448C12.4456 3.4115 12.4234 3.44387 12.3916 3.46447L10.5957 4.63179C10.5728 4.64661 10.5461 4.65453 10.5188 4.6546Z" fill="#DFEAEF"/>
<path d="M17.1478 4.92969C17.1189 4.92965 17.0906 4.9208 17.0669 4.90433C17.0431 4.88785 17.0249 4.86453 17.0147 4.83746C17.0045 4.81038 17.0027 4.78085 17.0097 4.75277C17.0167 4.72469 17.032 4.6994 17.0537 4.68026L19.2544 2.70765C19.2684 2.69511 19.2846 2.68543 19.3023 2.67918C19.32 2.67293 19.3387 2.67023 19.3575 2.67122C19.3762 2.67221 19.3945 2.67689 19.4115 2.68497C19.4284 2.69305 19.4436 2.70439 19.4561 2.71834C19.4686 2.73228 19.4783 2.74856 19.4846 2.76624C19.4908 2.78392 19.4935 2.80266 19.4925 2.82139C19.4915 2.84012 19.4869 2.85847 19.4788 2.87539C19.4707 2.89231 19.4594 2.90747 19.4454 2.92002L17.2433 4.89406C17.217 4.9173 17.183 4.92999 17.1478 4.92969Z" fill="#DFEAEF"/>
<path d="M20.0313 5.23472C20.0121 5.23464 19.9931 5.23069 19.9755 5.2231C19.9578 5.21551 19.9419 5.20443 19.9287 5.19053C19.9021 5.16383 19.8872 5.1277 19.8872 5.09005C19.8872 5.05239 19.9021 5.01627 19.9287 4.98956L21.2114 3.7581C21.2247 3.74474 21.2404 3.73414 21.2578 3.7269C21.2752 3.71967 21.2938 3.71594 21.3126 3.71594C21.3314 3.71594 21.3501 3.71967 21.3674 3.7269C21.3848 3.73414 21.4006 3.74474 21.4138 3.7581C21.4404 3.78481 21.4553 3.82093 21.4553 3.85859C21.4553 3.89624 21.4404 3.93237 21.4138 3.95907L20.131 5.19053C20.1181 5.20409 20.1027 5.21497 20.0856 5.22255C20.0684 5.23013 20.05 5.23426 20.0313 5.23472Z" fill="#DFEAEF"/>
</svg>
