<svg width="25" height="25" viewBox="0 0 25 25" fill="none" xmlns="http://www.w3.org/2000/svg">
<path d="M12.5 14.5833C13.6506 14.5833 14.5833 13.6506 14.5833 12.5C14.5833 11.3494 13.6506 10.4167 12.5 10.4167C11.3494 10.4167 10.4167 11.3494 10.4167 12.5C10.4167 13.6506 11.3494 14.5833 12.5 14.5833Z" fill="#EEEEEE"/>
<path d="M12.5 7.29167C13.6506 7.29167 14.5833 6.35893 14.5833 5.20833C14.5833 4.05774 13.6506 3.125 12.5 3.125C11.3494 3.125 10.4167 4.05774 10.4167 5.20833C10.4167 6.35893 11.3494 7.29167 12.5 7.29167Z" fill="#EEEEEE"/>
<path d="M12.5 21.875C13.6506 21.875 14.5833 20.9422 14.5833 19.7916C14.5833 18.6411 13.6506 17.7083 12.5 17.7083C11.3494 17.7083 10.4167 18.6411 10.4167 19.7916C10.4167 20.9422 11.3494 21.875 12.5 21.875Z" fill="#EEEEEE"/>
</svg>
