<svg width="29" height="29" viewBox="0 0 29 29" fill="none" xmlns="http://www.w3.org/2000/svg">
<circle cx="14.5" cy="14.5" r="14" fill="white" stroke="#598FF9"/>
<path d="M13.875 10.4375C13.875 11.1174 13.6734 11.782 13.2957 12.3473C12.918 12.9126 12.3811 13.3532 11.753 13.6133C11.1249 13.8735 10.4337 13.9416 9.76688 13.8089C9.10007 13.6763 8.48756 13.3489 8.00682 12.8682C7.52608 12.3874 7.19869 11.7749 7.06605 11.1081C6.93342 10.4413 7.00149 9.75015 7.26167 9.12203C7.52184 8.49391 7.96243 7.95704 8.52773 7.57932C9.09302 7.20161 9.75763 7 10.4375 7C11.3489 7.00103 12.2226 7.36353 12.867 8.00796C13.5115 8.65239 13.874 9.52614 13.875 10.4375ZM18.5625 13.875C19.2424 13.875 19.907 13.6734 20.4723 13.2957C21.0376 12.918 21.4782 12.3811 21.7383 11.753C21.9985 11.1249 22.0666 10.4337 21.9339 9.76688C21.8013 9.10007 21.4739 8.48756 20.9932 8.00682C20.5124 7.52608 19.8999 7.19869 19.2331 7.06605C18.5663 6.93342 17.8751 7.00149 17.247 7.26167C16.6189 7.52184 16.082 7.96243 15.7043 8.52773C15.3266 9.09302 15.125 9.75763 15.125 10.4375C15.126 11.3489 15.4885 12.2226 16.133 12.867C16.7774 13.5115 17.6511 13.874 18.5625 13.875ZM10.4375 15.125C9.75763 15.125 9.09302 15.3266 8.52773 15.7043C7.96243 16.082 7.52184 16.6189 7.26167 17.247C7.00149 17.8751 6.93342 18.5663 7.06605 19.2331C7.19869 19.8999 7.52608 20.5124 8.00682 20.9932C8.48756 21.4739 9.10007 21.8013 9.76688 21.9339C10.4337 22.0666 11.1249 21.9985 11.753 21.7383C12.3811 21.4782 12.918 21.0376 13.2957 20.4723C13.6734 19.907 13.875 19.2424 13.875 18.5625C13.874 17.6511 13.5115 16.7774 12.867 16.133C12.2226 15.4885 11.3489 15.126 10.4375 15.125ZM20.75 17.9375H19.1875V16.375C19.1875 16.2092 19.1217 16.0503 19.0044 15.9331C18.8872 15.8158 18.7283 15.75 18.5625 15.75C18.3967 15.75 18.2378 15.8158 18.1206 15.9331C18.0033 16.0503 17.9375 16.2092 17.9375 16.375V17.9375H16.375C16.2092 17.9375 16.0503 18.0033 15.9331 18.1206C15.8158 18.2378 15.75 18.3967 15.75 18.5625C15.75 18.7283 15.8158 18.8872 15.9331 19.0044C16.0503 19.1217 16.2092 19.1875 16.375 19.1875H17.9375V20.75C17.9375 20.9158 18.0033 21.0747 18.1206 21.1919C18.2378 21.3092 18.3967 21.375 18.5625 21.375C18.7283 21.375 18.8872 21.3092 19.0044 21.1919C19.1217 21.0747 19.1875 20.9158 19.1875 20.75V19.1875H20.75C20.9158 19.1875 21.0747 19.1217 21.1919 19.0044C21.3092 18.8872 21.375 18.7283 21.375 18.5625C21.375 18.3967 21.3092 18.2378 21.1919 18.1206C21.0747 18.0033 20.9158 17.9375 20.75 17.9375Z" fill="#598FF9"/>
</svg>
