<svg width="3" height="12" viewBox="0 0 3 12" fill="none" xmlns="http://www.w3.org/2000/svg">
<path d="M1.26105 6.875C1.9514 6.875 2.51105 6.31536 2.51105 5.625C2.51105 4.93464 1.9514 4.375 1.26105 4.375C0.570691 4.375 0.0110474 4.93464 0.0110474 5.625C0.0110474 6.31536 0.570691 6.875 1.26105 6.875Z" fill="#EEEEEE"/>
<path d="M1.26105 2.5C1.9514 2.5 2.51105 1.94036 2.51105 1.25C2.51105 0.559644 1.9514 0 1.26105 0C0.570691 0 0.0110474 0.559644 0.0110474 1.25C0.0110474 1.94036 0.570691 2.5 1.26105 2.5Z" fill="#EEEEEE"/>
<path d="M1.26105 11.25C1.9514 11.25 2.51105 10.6904 2.51105 10C2.51105 9.30964 1.9514 8.75 1.26105 8.75C0.570691 8.75 0.0110474 9.30964 0.0110474 10C0.0110474 10.6904 0.570691 11.25 1.26105 11.25Z" fill="#EEEEEE"/>
</svg>
