<svg width="30" height="32" viewBox="0 0 30 32" fill="none" xmlns="http://www.w3.org/2000/svg">
<path d="M15.6715 23.9959L15.635 25.4132H19.3017C19.3193 25.4128 19.3363 25.407 19.3505 25.3967C19.3647 25.3863 19.3754 25.3719 19.3811 25.3553C19.3869 25.3387 19.3875 25.3208 19.3828 25.3039C19.3781 25.287 19.3683 25.2719 19.3548 25.2607L17.6491 23.918L15.6715 23.9959Z" fill="#F56132"/>
<path d="M15.6354 25.5789C15.6131 25.579 15.5911 25.5747 15.5706 25.5661C15.5501 25.5576 15.5315 25.545 15.516 25.5292C15.5005 25.5131 15.4884 25.4942 15.4805 25.4734C15.4725 25.4526 15.4688 25.4304 15.4696 25.4081L15.5061 23.9909C15.5061 23.9469 15.5235 23.9047 15.5546 23.8736C15.5857 23.8426 15.6279 23.8251 15.6718 23.8251L17.6444 23.7472C17.6833 23.7458 17.7215 23.7581 17.7522 23.782L19.4629 25.123C19.5039 25.1551 19.534 25.1992 19.5488 25.2492C19.5636 25.2992 19.5624 25.3525 19.5454 25.4018C19.5285 25.4511 19.4965 25.4938 19.4541 25.5241C19.4117 25.5544 19.3608 25.5706 19.3087 25.5706H15.642L15.6354 25.5789ZM15.8343 24.155L15.8061 25.2474H19.0683L17.5897 24.087L15.8343 24.155Z" fill="#093F68"/>
<path d="M17.7385 13.2676C17.7385 13.2676 19.2089 13.1317 19.4708 13.3239C19.7327 13.5162 20.0576 13.924 20.041 14.1528C20.0244 14.3815 19.9316 14.6501 19.7095 14.6501C19.4692 14.6289 19.2279 14.6217 18.9867 14.6285C18.7165 14.6567 17.644 14.67 17.644 14.67L17.7385 13.2676Z" fill="#FFC9B0"/>
<path d="M17.649 14.829C17.6263 14.829 17.6039 14.8244 17.5832 14.8155C17.5624 14.8065 17.5436 14.7934 17.5281 14.777C17.5126 14.7605 17.5006 14.741 17.4929 14.7198C17.4851 14.6985 17.4819 14.6759 17.4832 14.6533L17.5744 13.2575C17.577 13.2181 17.5936 13.1808 17.6213 13.1526C17.649 13.1243 17.6858 13.1068 17.7252 13.1034C18.0849 13.0702 19.2818 12.9774 19.5702 13.1896C19.8056 13.3553 20.2333 13.8244 20.2084 14.1576C20.1802 14.5488 19.9863 14.8041 19.7111 14.8091C19.6159 14.8091 19.5207 14.8041 19.426 14.7942C19.2859 14.7808 19.145 14.7808 19.0049 14.7942C18.7298 14.824 17.6904 14.8373 17.6457 14.8373L17.649 14.829ZM17.896 13.4216L17.8263 14.4958C18.1413 14.4958 18.7795 14.4776 18.9734 14.456C19.135 14.4408 19.2976 14.4408 19.4591 14.456C19.5486 14.4643 19.6249 14.4709 19.7111 14.4709C19.7973 14.4709 19.8653 14.2919 19.8769 14.1261C19.8868 14.0035 19.6398 13.6454 19.3796 13.4498C19.2536 13.3686 18.5408 13.3686 17.8943 13.4216H17.896Z" fill="#093F68"/>
<path d="M13.3063 9.73677C12.8487 8.91955 12.6598 8.57642 11.8956 8.57642H9.80364C9.38071 8.57642 8.97511 8.74442 8.67605 9.04348C8.37699 9.34254 8.20898 9.74815 8.20898 10.1711V15.3579H13.4886V13.6323C14.4699 14.8075 15.9751 15.0363 17.5847 15.265L17.8847 13.1598C15.8159 12.8714 14.0638 11.1126 13.3063 9.73677Z" fill="#00A112"/>
<path d="M13.4888 15.5237H8.20922C8.16526 15.5237 8.1231 15.5062 8.09201 15.4751C8.06092 15.444 8.04346 15.4019 8.04346 15.3579V10.1645C8.0439 9.69772 8.22951 9.2502 8.55956 8.92015C8.88961 8.59011 9.33712 8.40449 9.80388 8.40405H11.8958C12.7512 8.40405 12.9799 8.81515 13.4391 9.63237L13.4524 9.65558C14.2298 11.0679 15.9571 12.7156 17.9098 12.9941C17.953 13.0006 17.9919 13.024 18.018 13.0591C18.044 13.0942 18.0552 13.1381 18.049 13.1814L17.749 15.2866C17.746 15.3082 17.7387 15.329 17.7276 15.3478C17.7165 15.3665 17.7018 15.3829 17.6844 15.396C17.6492 15.4223 17.6051 15.4337 17.5617 15.4275C16.1461 15.2253 14.6857 15.0164 13.6546 14.0467V15.3579C13.6546 15.4019 13.6371 15.444 13.6061 15.4751C13.575 15.5062 13.5328 15.5237 13.4888 15.5237ZM8.37499 15.1921H13.3231V13.6257C13.3231 13.5916 13.3336 13.5584 13.3532 13.5305C13.3728 13.5026 13.4004 13.4814 13.4325 13.4698C13.4644 13.458 13.4991 13.4563 13.5321 13.4649C13.565 13.4735 13.5944 13.492 13.6165 13.5179C14.5348 14.6202 15.9372 14.8556 17.444 15.0711L17.6993 13.2908C15.7018 12.9311 13.9563 11.2536 13.1623 9.80974L13.1507 9.78819C12.7064 8.99583 12.5556 8.72895 11.8958 8.72895H9.80388C9.42505 8.72939 9.06186 8.88008 8.79399 9.14795C8.52611 9.41583 8.37543 9.77901 8.37499 10.1578V15.1921Z" fill="#093F68"/>
<path d="M12.9414 13.5427C12.8974 13.5427 12.8553 13.5253 12.8242 13.4942C12.7931 13.4631 12.7756 13.4209 12.7756 13.377V10.8192C12.7756 10.7752 12.7931 10.7331 12.8242 10.702C12.8553 10.6709 12.8974 10.6534 12.9414 10.6534C12.9854 10.6534 13.0275 10.6709 13.0586 10.702C13.0897 10.7331 13.1072 10.7752 13.1072 10.8192V13.377C13.1072 13.4209 13.0897 13.4631 13.0586 13.4942C13.0275 13.5253 12.9854 13.5427 12.9414 13.5427Z" fill="#093F68"/>
<path d="M10.4883 8.29956H11.6337V8.96262C11.6337 9.09187 11.5824 9.21583 11.491 9.30723C11.3996 9.39863 11.2756 9.44997 11.1464 9.44997H10.9806C10.8514 9.44997 10.7274 9.39863 10.636 9.30723C10.5446 9.21583 10.4933 9.09187 10.4933 8.96262V8.29956H10.4883Z" fill="#FFC9B0"/>
<path d="M11.1482 9.61243H10.9825C10.81 9.60986 10.6454 9.54023 10.5235 9.4183C10.4015 9.29637 10.3319 9.13174 10.3293 8.95932V8.29626C10.3293 8.25229 10.3468 8.21013 10.3779 8.17904C10.409 8.14796 10.4511 8.13049 10.4951 8.13049H11.6405C11.6845 8.13049 11.7267 8.14796 11.7578 8.17904C11.7888 8.21013 11.8063 8.25229 11.8063 8.29626V8.95932C11.8063 9.04551 11.7893 9.13084 11.7561 9.21041C11.723 9.28997 11.6744 9.36219 11.6133 9.42291C11.5521 9.48362 11.4795 9.53162 11.3997 9.56415C11.3199 9.59668 11.2344 9.61309 11.1482 9.61243ZM10.6509 8.46534V8.96263C10.6509 9.04792 10.6848 9.12972 10.7451 9.19003C10.8054 9.25034 10.8872 9.28422 10.9725 9.28422H11.1383C11.1804 9.28422 11.2222 9.27589 11.2611 9.25971C11.3 9.24353 11.3354 9.21981 11.3651 9.18993C11.3948 9.16004 11.4184 9.12458 11.4343 9.08557C11.4503 9.04657 11.4584 9.00479 11.4582 8.96263V8.46534H10.6509Z" fill="#093F68"/>
<path d="M25.8427 27.825H8.28817V26.5784H0.165681C0.139159 22.1144 3.55558 19.671 3.55558 19.671H14.453C14.453 19.671 12.918 20.649 12.4638 22.925C12.1522 24.4699 14.7845 25.9087 17.7003 25.2457C20.6161 24.5826 21.5129 23.1869 21.1416 20.4948C20.7703 17.8028 18.428 15.1091 18.428 15.1091H20.4686C20.4686 15.1091 21.7151 15.6578 23.8104 19.3477C24.1667 19.9844 24.4689 20.6498 24.7138 21.3369C25.5891 23.7339 25.793 26.1607 25.841 27.2465V27.4222C25.8444 27.6774 25.8427 27.825 25.8427 27.825Z" fill="#598FF9"/>
<path d="M25.8429 27.9908H8.28841C8.24444 27.9908 8.20228 27.9733 8.17119 27.9423C8.14011 27.9112 8.12264 27.869 8.12264 27.825V26.7442H0.165917C0.121954 26.7442 0.0797904 26.7268 0.0487034 26.6957C0.0176164 26.6646 0.000152086 26.6224 0.000152086 26.5785C-0.0263703 22.0813 3.42486 19.56 3.45967 19.5351C3.48785 19.5155 3.52145 19.505 3.55581 19.5053H14.4532C14.489 19.5054 14.5237 19.517 14.5523 19.5385C14.5809 19.5599 14.6018 19.5901 14.6118 19.6244C14.6219 19.6587 14.6206 19.6953 14.6082 19.7288C14.5957 19.7623 14.5727 19.7909 14.5427 19.8103C14.5278 19.8202 13.0591 20.785 12.6215 22.9598C12.5138 23.4953 12.8188 23.9262 13.0939 24.1948C13.8631 24.9474 15.6202 25.5458 17.6591 25.0849C20.4125 24.4617 21.3424 23.182 20.9744 20.5198C20.6114 17.9073 18.3222 15.2451 18.3006 15.2153C18.2801 15.1913 18.2669 15.162 18.2625 15.1307C18.258 15.0995 18.2626 15.0677 18.2757 15.0389C18.2887 15.0102 18.3097 14.9858 18.3361 14.9686C18.3626 14.9514 18.3934 14.9421 18.4249 14.9418H20.4655C20.4883 14.9419 20.5108 14.9464 20.5318 14.955C20.5849 14.9782 21.8579 15.5684 23.9516 19.2649C24.3123 19.9075 24.6189 20.5789 24.8682 21.2723C25.5362 23.1919 25.9188 25.1992 26.0037 27.2299V27.4057C26.012 27.6775 26.0037 27.8267 26.0037 27.8267C26.0033 27.8695 25.9863 27.9105 25.9564 27.9411C25.9264 27.9717 25.8857 27.9895 25.8429 27.9908ZM8.45417 27.6593H25.6755C25.6755 27.5963 25.6755 27.5151 25.6755 27.4189C25.6755 27.3659 25.6755 27.3062 25.6755 27.2415C25.5924 25.2453 25.2165 23.2721 24.5599 21.3851C24.3166 20.7095 24.0177 20.0553 23.6664 19.429C21.8066 16.1535 20.6197 15.3811 20.4274 15.2733H18.7797C19.3847 16.0308 20.9943 18.2306 21.3059 20.47C21.7005 23.3129 20.6661 24.7435 17.737 25.4049C16.2236 25.748 14.0537 25.5889 12.8668 24.4285C12.3961 23.9677 12.1955 23.4223 12.3016 22.8919C12.517 21.7203 13.102 20.6485 13.9708 19.8335H3.60389C3.22594 20.1252 0.379754 22.4509 0.325052 26.4094H8.28178C8.32574 26.4094 8.3679 26.4269 8.39899 26.458C8.43008 26.489 8.44754 26.5312 8.44754 26.5752L8.45417 27.6593Z" fill="#093F68"/>
<path d="M25.7718 27.4454V27.825H19.922C19.9137 27.7007 19.9087 27.5731 19.9087 27.4454C19.9154 26.0893 20.4044 24.7798 21.2881 23.7512C22.1719 22.7225 23.3928 22.0419 24.7325 21.831C25.0159 21.7863 25.3025 21.7641 25.5895 21.7647C26.3919 21.7649 27.1852 21.935 27.9172 22.2639C28.6492 22.5927 29.3033 23.0728 29.8364 23.6726L25.7718 27.283L25.5895 27.4487L25.7718 27.4454Z" fill="#598FF9"/>
<path d="M25.7848 27.9908H19.9217C19.8796 27.9909 19.8391 27.975 19.8084 27.9464C19.7776 27.9178 19.7588 27.8785 19.7559 27.8366C19.7459 27.7024 19.741 27.5714 19.741 27.4454C19.75 26.0502 20.254 24.7036 21.1632 23.6453C22.0724 22.5871 23.3277 21.8859 24.7056 21.6668C24.9974 21.6214 25.2922 21.5987 25.5875 21.5989C26.413 21.5995 27.2291 21.7746 27.9822 22.1129C28.7352 22.4511 29.4083 22.9448 29.9571 23.5615C29.9718 23.5778 29.9831 23.5968 29.9904 23.6175C29.9977 23.6382 30.0008 23.6601 29.9996 23.682C29.9984 23.7039 29.9928 23.7253 29.9832 23.7451C29.9736 23.7648 29.9602 23.7824 29.9438 23.7969L25.924 27.3692C25.9345 27.3916 25.9407 27.4157 25.9422 27.4404V27.8267C25.9419 27.869 25.9254 27.9095 25.8961 27.94C25.8668 27.9705 25.827 27.9887 25.7848 27.9908ZM20.0791 27.6593H25.6173C25.6173 27.6443 25.6173 27.6278 25.6173 27.6112H25.5908C25.5572 27.6111 25.5243 27.6008 25.4967 27.5817C25.469 27.5625 25.4478 27.5354 25.436 27.5039C25.4241 27.4724 25.4221 27.4381 25.4302 27.4054C25.4383 27.3728 25.4562 27.3433 25.4814 27.3211L25.6638 27.1553L29.6007 23.656C29.085 23.1103 28.4634 22.6755 27.774 22.3782C27.0845 22.0809 26.3416 21.9274 25.5908 21.9271C25.3133 21.9268 25.0361 21.9484 24.762 21.9917C23.4621 22.1982 22.2778 22.8595 21.4199 23.8576C20.562 24.8557 20.0863 26.126 20.0775 27.4421C20.0753 27.5139 20.0758 27.5863 20.0791 27.6593Z" fill="#093F68"/>
<path d="M25.6327 31.2182C27.7337 31.2182 29.437 29.515 29.437 27.4139C29.437 25.3129 27.7337 23.6096 25.6327 23.6096C23.5316 23.6096 21.8284 25.3129 21.8284 27.4139C21.8284 29.515 23.5316 31.2182 25.6327 31.2182Z" fill="#093F68"/>
<path d="M25.6322 31.384C24.8473 31.384 24.0801 31.1514 23.4274 30.7155C22.7747 30.2796 22.2658 29.6601 21.9651 28.9351C21.6644 28.2102 21.5853 27.4123 21.7378 26.6424C21.8903 25.8726 22.2676 25.1651 22.822 24.6096C23.3764 24.054 24.083 23.6753 24.8526 23.5211C25.6222 23.367 26.4201 23.4445 27.1457 23.7437C27.8713 24.0429 28.4919 24.5505 28.9291 25.2022C29.3664 25.854 29.6006 26.6208 29.6023 27.4056C29.6023 28.4593 29.1842 29.47 28.4399 30.2158C27.6957 30.9617 26.6859 31.3818 25.6322 31.384ZM25.6322 23.7754C24.9102 23.7737 24.204 23.9864 23.603 24.3865C23.002 24.7866 22.5333 25.3561 22.2563 26.0228C21.9792 26.6895 21.9063 27.4234 22.0467 28.1316C22.1872 28.8398 22.5347 29.4904 23.0452 30.0009C23.5557 30.5114 24.2063 30.8589 24.9145 30.9994C25.6227 31.1398 26.3566 31.0669 27.0233 30.7898C27.69 30.5128 28.2595 30.0441 28.6596 29.4431C29.0597 28.8421 29.2724 28.1359 29.2707 27.4139C29.2685 26.4496 28.8845 25.5254 28.2026 24.8435C27.5207 24.1616 26.5965 23.7776 25.6322 23.7754Z" fill="#093F68"/>
<path d="M25.6322 29.0103C26.5138 29.0103 27.2285 28.2956 27.2285 27.4139C27.2285 26.5323 26.5138 25.8176 25.6322 25.8176C24.7506 25.8176 24.0359 26.5323 24.0359 27.4139C24.0359 28.2956 24.7506 29.0103 25.6322 29.0103Z" fill="white"/>
<path d="M25.6326 29.1743C25.284 29.1746 24.9431 29.0715 24.6531 28.878C24.363 28.6845 24.1369 28.4094 24.0033 28.0873C23.8698 27.7653 23.8347 27.4108 23.9027 27.0689C23.9706 26.7269 24.1385 26.4128 24.385 26.1662C24.6315 25.9197 24.9457 25.7519 25.2876 25.6839C25.6296 25.616 25.984 25.651 26.3061 25.7846C26.6281 25.9182 26.9033 26.1443 27.0968 26.4343C27.2903 26.7243 27.3934 27.0652 27.3931 27.4139C27.3922 27.8805 27.2064 28.3278 26.8765 28.6577C26.5465 28.9877 26.0993 29.1734 25.6326 29.1743ZM25.6326 25.9833C25.3496 25.983 25.0729 26.0666 24.8374 26.2236C24.6019 26.3806 24.4183 26.6039 24.3098 26.8653C24.2013 27.1267 24.1727 27.4143 24.2277 27.692C24.2827 27.9696 24.4188 28.2246 24.6188 28.4249C24.8188 28.6251 25.0737 28.7615 25.3513 28.8168C25.6288 28.8722 25.9166 28.8439 26.178 28.7357C26.4395 28.6275 26.6631 28.4441 26.8203 28.2088C26.9776 27.9735 27.0615 27.6969 27.0615 27.4139C27.0611 27.0349 26.9105 26.6715 26.6426 26.4034C26.3748 26.1353 26.0116 25.9842 25.6326 25.9833Z" fill="#093F68"/>
<path d="M5.48229 31.2182C7.58335 31.2182 9.2866 29.515 9.2866 27.4139C9.2866 25.3129 7.58335 23.6096 5.48229 23.6096C3.38123 23.6096 1.67798 25.3129 1.67798 27.4139C1.67798 29.515 3.38123 31.2182 5.48229 31.2182Z" fill="#093F68"/>
<path d="M5.48229 31.384C4.69779 31.3823 3.93136 31.1483 3.27976 30.7115C2.62815 30.2746 2.12059 29.6545 1.82113 28.9294C1.52167 28.2043 1.44375 27.4067 1.5972 26.6374C1.75065 25.868 2.12859 25.1614 2.68332 24.6067C3.23804 24.0519 3.94468 23.674 4.71403 23.5205C5.48337 23.3671 6.28093 23.445 7.00603 23.7445C7.73113 24.0439 8.35125 24.5515 8.78812 25.2031C9.22498 25.8547 9.45901 26.6211 9.46065 27.4056C9.46065 28.4608 9.0415 29.4727 8.29541 30.2188C7.54932 30.9648 6.53742 31.384 5.48229 31.384ZM5.48229 23.7754C4.76066 23.7754 4.05525 23.9895 3.45536 24.3906C2.85546 24.7916 2.38804 25.3617 2.11227 26.0285C1.83649 26.6954 1.76476 27.4291 1.90615 28.1367C2.04753 28.8444 2.39568 29.4941 2.90653 30.0038C3.41738 30.5135 4.06796 30.8602 4.77592 31C5.48388 31.1397 6.2174 31.0663 6.88362 30.7891C7.54985 30.5118 8.11883 30.043 8.51855 29.4422C8.91827 28.8414 9.13076 28.1355 9.12912 27.4139C9.12692 26.4482 8.74174 25.5227 8.05806 24.8406C7.37439 24.1584 6.44805 23.7754 5.48229 23.7754Z" fill="#093F68"/>
<path d="M5.48182 29.0103C6.36344 29.0103 7.07813 28.2956 7.07813 27.4139C7.07813 26.5323 6.36344 25.8176 5.48182 25.8176C4.60019 25.8176 3.8855 26.5323 3.8855 27.4139C3.8855 28.2956 4.60019 29.0103 5.48182 29.0103Z" fill="white"/>
<path d="M5.48205 29.1743C5.13348 29.1743 4.79273 29.0709 4.50292 28.8772C4.21311 28.6835 3.98726 28.4082 3.85394 28.0862C3.72063 27.7641 3.68583 27.4097 3.75395 27.0679C3.82208 26.726 3.99006 26.412 4.23666 26.1657C4.48326 25.9193 4.79739 25.7516 5.13931 25.6838C5.48123 25.616 5.83557 25.6511 6.15752 25.7848C6.47947 25.9184 6.75456 26.1445 6.94798 26.4345C7.1414 26.7245 7.24446 27.0653 7.24414 27.4139C7.24326 27.8808 7.05728 28.3283 6.72697 28.6583C6.39665 28.9883 5.94897 29.1739 5.48205 29.1743ZM5.48205 25.9833C5.19912 25.9833 4.92254 26.0672 4.68728 26.2244C4.45203 26.3816 4.26867 26.605 4.1604 26.8664C4.05212 27.1278 4.02379 27.4155 4.07899 27.693C4.13419 27.9705 4.27043 28.2254 4.4705 28.4254C4.67057 28.6255 4.92547 28.7618 5.20297 28.817C5.48047 28.8722 5.7681 28.8438 6.0295 28.7355C6.2909 28.6273 6.51432 28.4439 6.67152 28.2087C6.82871 27.9734 6.91261 27.6968 6.91261 27.4139C6.91217 27.0346 6.76131 26.671 6.49312 26.4028C6.22494 26.1346 5.86133 25.9838 5.48205 25.9833Z" fill="#093F68"/>
<path d="M14.4468 19.8336H3.50634C3.46238 19.8336 3.42022 19.8161 3.38913 19.785C3.35804 19.7539 3.34058 19.7118 3.34058 19.6678C3.34102 19.0287 3.59509 18.4159 4.047 17.964C4.49891 17.5121 5.11171 17.258 5.7508 17.2576H13.0445C13.4598 17.258 13.858 17.4232 14.1517 17.7169C14.4453 18.0105 14.6105 18.4087 14.6109 18.824V19.6678C14.6109 19.7115 14.5937 19.7534 14.563 19.7844C14.5323 19.8155 14.4905 19.8331 14.4468 19.8336ZM3.68537 19.502H14.2811V18.824C14.2806 18.4967 14.1504 18.1828 13.9189 17.9513C13.6874 17.7198 13.3735 17.5895 13.0461 17.5891H5.75246C5.23082 17.5907 4.72883 17.7883 4.34598 18.1426C3.96313 18.4969 3.72735 18.9821 3.68537 19.502Z" fill="#093F68"/>
<path d="M1.00635 26.5785H9.46037C9.46037 26.5785 11.927 23.8219 10.2461 22.1576C8.97965 20.9044 6.46665 21.0171 4.37304 22.1393C2.27942 23.2616 1.45557 25.2193 1.00635 26.5785Z" fill="#598FF9"/>
<path d="M9.46066 26.7442H1.00663C0.980336 26.7441 0.954444 26.7377 0.931097 26.7256C0.90775 26.7135 0.887618 26.696 0.872365 26.6746C0.856961 26.6533 0.846825 26.6287 0.84279 26.6028C0.838756 26.5769 0.840938 26.5503 0.849158 26.5254C1.31164 25.1247 2.17528 23.1289 4.29376 21.9934C6.55811 20.78 9.10094 20.7999 10.3624 22.0398C12.1344 23.7953 9.68941 26.5718 9.58332 26.6812C9.56859 26.6999 9.55001 26.7152 9.52885 26.7261C9.50768 26.737 9.48443 26.7431 9.46066 26.7442ZM1.23705 26.4127H9.3844C9.71593 26.0231 11.5526 23.6859 10.1287 22.2686C8.97828 21.1281 6.5896 21.1331 4.45123 22.2785C2.55488 23.3013 1.736 24.9921 1.23871 26.4127H1.23705Z" fill="#093F68"/>
<path d="M18.4365 13.6471H20.4572V15.1058H18.4365V13.6471Z" fill="#FFBC0E"/>
<path d="M20.4574 15.2732H18.4368C18.3928 15.2732 18.3506 15.2558 18.3195 15.2247C18.2885 15.1936 18.271 15.1514 18.271 15.1075V13.6471C18.271 13.6031 18.2885 13.561 18.3195 13.5299C18.3506 13.4988 18.3928 13.4813 18.4368 13.4813H20.4574C20.5014 13.4813 20.5436 13.4988 20.5747 13.5299C20.6057 13.561 20.6232 13.6031 20.6232 13.6471V15.1075C20.6232 15.1514 20.6057 15.1936 20.5747 15.2247C20.5436 15.2558 20.5014 15.2732 20.4574 15.2732ZM18.6025 14.9417H20.2917V13.8129H18.6025V14.9417Z" fill="#093F68"/>
<path d="M21.9541 13.1316L20.4573 13.6471V15.1075L21.9541 15.623V13.1316Z" fill="#FFBC0E"/>
<path d="M21.9589 15.7888C21.9403 15.7886 21.9218 15.7853 21.9042 15.7789L20.4123 15.2634C20.38 15.2521 20.3519 15.231 20.332 15.2031C20.3122 15.1752 20.3014 15.1418 20.3013 15.1075V13.6472C20.3014 13.6129 20.3122 13.5795 20.332 13.5516C20.3519 13.5237 20.38 13.5026 20.4123 13.4913L21.9042 12.9758C21.9293 12.9671 21.956 12.9645 21.9823 12.9682C22.0085 12.972 22.0335 12.982 22.0551 12.9974C22.0765 13.0126 22.094 13.0327 22.1061 13.0561C22.1182 13.0794 22.1246 13.1053 22.1247 13.1316V15.6181C22.1246 15.6444 22.1182 15.6703 22.1061 15.6936C22.094 15.717 22.0765 15.7371 22.0551 15.7524C22.0277 15.7744 21.994 15.7872 21.9589 15.7888ZM20.6328 14.9882L21.7932 15.391V13.3687L20.6328 13.7715V14.9882Z" fill="#093F68"/>
<path d="M17.9046 15.9463C17.8712 15.9462 17.8386 15.9361 17.811 15.9171C17.7835 15.8981 17.7623 15.8713 17.7503 15.8401C17.7383 15.8089 17.736 15.7748 17.7437 15.7423C17.7514 15.7098 17.7688 15.6804 17.7935 15.6579L19.3351 14.2555C19.3513 14.2408 19.3701 14.2295 19.3906 14.222C19.4111 14.2146 19.4329 14.2113 19.4547 14.2123C19.4764 14.2133 19.4978 14.2186 19.5175 14.2279C19.5373 14.2371 19.555 14.2502 19.5697 14.2663C19.5844 14.2824 19.5958 14.3013 19.6032 14.3218C19.6106 14.3423 19.6139 14.364 19.6129 14.3858C19.6119 14.4076 19.6066 14.429 19.5974 14.4487C19.5881 14.4684 19.575 14.4862 19.5589 14.5009L18.0157 15.9032C17.9853 15.9309 17.9457 15.9462 17.9046 15.9463Z" fill="#093F68"/>
<path d="M19.4478 13.8129C19.4074 13.8132 19.3682 13.7987 19.3376 13.7722C19.3071 13.7456 19.2873 13.7088 19.2821 13.6687L19.0765 12.1105L18.072 11.4474C18.0381 11.4219 18.0153 11.3845 18.0082 11.3427C18.0011 11.3009 18.0103 11.258 18.0338 11.2228C18.0574 11.1876 18.0935 11.1627 18.1348 11.1533C18.1762 11.1439 18.2195 11.1507 18.256 11.1722L19.3235 11.8767C19.3432 11.8898 19.36 11.9069 19.3725 11.9269C19.3851 11.9469 19.3933 11.9694 19.3964 11.9928L19.6119 13.6256C19.615 13.6472 19.6137 13.6693 19.6081 13.6905C19.6026 13.7116 19.5929 13.7315 19.5797 13.7489C19.5664 13.7663 19.5499 13.7809 19.5309 13.7919C19.512 13.8029 19.4911 13.81 19.4694 13.8129H19.4478Z" fill="#093F68"/>
<path d="M18.1664 10.4429C18.1664 10.2983 18.0491 10.181 17.9045 10.181C17.7598 10.181 17.6426 10.2983 17.6426 10.4429V12.1636C17.6426 12.3082 17.7598 12.4255 17.9045 12.4255C18.0491 12.4255 18.1664 12.3082 18.1664 12.1636V10.4429Z" fill="#F56132"/>
<path d="M17.9047 12.5912C17.8486 12.5912 17.7929 12.5802 17.7411 12.5587C17.6892 12.5372 17.642 12.5057 17.6023 12.466C17.5626 12.4263 17.5311 12.3791 17.5096 12.3272C17.4881 12.2754 17.4771 12.2197 17.4771 12.1636V10.4429C17.4771 10.3295 17.5221 10.2207 17.6023 10.1405C17.6825 10.0603 17.7913 10.0153 17.9047 10.0153C18.0181 10.0153 18.1269 10.0603 18.2071 10.1405C18.2873 10.2207 18.3324 10.3295 18.3324 10.4429V12.1636C18.3324 12.2197 18.3213 12.2754 18.2998 12.3272C18.2784 12.3791 18.2468 12.4263 18.2071 12.466C18.1674 12.5057 18.1203 12.5372 18.0684 12.5587C18.0165 12.5802 17.9609 12.5912 17.9047 12.5912ZM17.9047 10.3468C17.8792 10.3468 17.8548 10.3569 17.8367 10.3749C17.8187 10.393 17.8086 10.4174 17.8086 10.4429V12.1636C17.8086 12.1762 17.8111 12.1887 17.8159 12.2004C17.8207 12.212 17.8278 12.2226 17.8367 12.2316C17.8457 12.2405 17.8563 12.2476 17.8679 12.2524C17.8796 12.2572 17.8921 12.2597 17.9047 12.2597C17.9173 12.2597 17.9299 12.2572 17.9415 12.2524C17.9532 12.2476 17.9638 12.2405 17.9727 12.2316C17.9816 12.2226 17.9887 12.212 17.9935 12.2004C17.9984 12.1887 18.0009 12.1762 18.0009 12.1636V10.4429C18.0009 10.4174 17.9907 10.393 17.9727 10.3749C17.9547 10.3569 17.9302 10.3468 17.9047 10.3468Z" fill="#093F68"/>
<path d="M6.8415 25.5475H3.51293C3.46897 25.5475 3.42681 25.53 3.39572 25.4989C3.36463 25.4678 3.34717 25.4257 3.34717 25.3817C3.34717 25.3377 3.36463 25.2956 3.39572 25.2645C3.42681 25.2334 3.46897 25.2159 3.51293 25.2159H6.8415C6.88546 25.2159 6.92762 25.2334 6.95871 25.2645C6.9898 25.2956 7.00726 25.3377 7.00726 25.3817C7.00726 25.4257 6.9898 25.4678 6.95871 25.4989C6.92762 25.53 6.88546 25.5475 6.8415 25.5475Z" fill="#093F68"/>
<path d="M7.14618 24.7484H3.81762C3.77366 24.7484 3.73149 24.7309 3.70041 24.6998C3.66932 24.6688 3.65186 24.6266 3.65186 24.5826C3.65186 24.5387 3.66932 24.4965 3.70041 24.4654C3.73149 24.4343 3.77366 24.4169 3.81762 24.4169H7.14618C7.19015 24.4169 7.23231 24.4343 7.2634 24.4654C7.29448 24.4965 7.31195 24.5387 7.31195 24.5826C7.31195 24.6266 7.29448 24.6688 7.2634 24.6998C7.23231 24.7309 7.19015 24.7484 7.14618 24.7484Z" fill="#093F68"/>
<path d="M7.45253 23.9512H4.12231C4.07834 23.9512 4.03618 23.9337 4.00509 23.9026C3.97401 23.8715 3.95654 23.8294 3.95654 23.7854C3.95654 23.7414 3.97401 23.6993 4.00509 23.6682C4.03618 23.6371 4.07834 23.6196 4.12231 23.6196H7.45253C7.49649 23.6196 7.53866 23.6371 7.56974 23.6682C7.60083 23.6993 7.6183 23.7414 7.6183 23.7854C7.6183 23.8294 7.60083 23.8715 7.56974 23.9026C7.53866 23.9337 7.49649 23.9512 7.45253 23.9512Z" fill="#093F68"/>
<path d="M17.3175 13.6372C17.3175 13.6372 18.7828 13.4515 19.0514 13.6372C19.3199 13.8229 19.6564 14.2174 19.6481 14.4412C19.6398 14.6649 19.5553 14.9385 19.3348 14.9484C19.0941 14.9343 18.8528 14.9343 18.6121 14.9484C18.3435 14.9865 17.2727 15.0346 17.2727 15.0346L17.3175 13.6372Z" fill="#FFC9B0"/>
<path d="M17.2745 15.2003C17.2313 15.2005 17.1896 15.1839 17.1585 15.1539C17.142 15.1377 17.1291 15.1184 17.1205 15.097C17.1119 15.0755 17.1079 15.0526 17.1087 15.0295L17.1535 13.6321C17.1532 13.5917 17.1676 13.5525 17.1942 13.5219C17.2208 13.4914 17.2576 13.4716 17.2977 13.4664C17.6574 13.4216 18.8493 13.289 19.146 13.4929C19.3864 13.6587 19.8289 14.1046 19.8091 14.4394C19.7925 14.8306 19.6085 15.0925 19.3383 15.1025C19.2438 15.1025 19.146 15.1025 19.0532 15.1025C18.9126 15.0893 18.7711 15.0893 18.6305 15.1025C18.357 15.1423 17.3193 15.1887 17.2745 15.1903V15.2003ZM17.4801 13.7847L17.4452 14.8605C17.7602 14.8455 18.3984 14.8124 18.5907 14.7842C18.7527 14.7679 18.916 14.7679 19.078 14.7842H19.3283C19.3283 14.7842 19.4775 14.6019 19.4842 14.4361C19.4842 14.3118 19.2305 13.962 18.9587 13.773C18.836 13.6902 18.1232 13.7134 17.4834 13.7847H17.4801Z" fill="#093F68"/>
<path d="M10.9309 10.181C11.6321 11.0894 13.6826 13.1747 17.8019 13.3107L17.9163 15.4258C17.9163 15.4258 17.7953 15.4374 17.7323 15.4358C12.9615 15.28 10.3972 12.8963 9.35449 11.6099" fill="#00A112"/>
<path d="M17.747 15.6015H17.7271C12.9447 15.4456 10.3489 13.1001 9.22663 11.7143C9.19915 11.6803 9.18617 11.6369 9.19052 11.5935C9.19487 11.55 9.21618 11.51 9.24984 11.4822C9.2668 11.4684 9.28631 11.4581 9.30725 11.4519C9.32819 11.4457 9.35015 11.4437 9.37187 11.446C9.39359 11.4483 9.41464 11.4549 9.43381 11.4654C9.45298 11.4759 9.46989 11.49 9.48357 11.5071C10.571 12.8464 13.0873 15.1174 17.737 15.2699L17.6492 13.4697C13.5548 13.2874 11.5026 11.1855 10.8047 10.282C10.7898 10.265 10.7785 10.2451 10.7716 10.2236C10.7647 10.202 10.7622 10.1793 10.7644 10.1568C10.7666 10.1343 10.7734 10.1124 10.7844 10.0926C10.7953 10.0728 10.8102 10.0555 10.8281 10.0416C10.846 10.0278 10.8666 10.0178 10.8885 10.0122C10.9104 10.0066 10.9333 10.0056 10.9556 10.0092C10.978 10.0127 10.9993 10.0209 11.0184 10.033C11.0375 10.0452 11.0539 10.0611 11.0666 10.0798C11.7446 10.9567 13.757 13.0122 17.8116 13.1448C17.8539 13.1447 17.8946 13.1608 17.9254 13.1898C17.9563 13.2188 17.9748 13.2584 17.9774 13.3006L18.0918 15.4175C18.092 15.4587 18.0768 15.4985 18.0492 15.5292C18.0216 15.5598 17.9836 15.5791 17.9426 15.5832C17.9194 15.5915 17.8149 15.6015 17.747 15.6015Z" fill="#093F68"/>
<path d="M13.288 15.3578L8.20899 15.3893V16.2977C8.20779 16.6266 8.32266 16.9454 8.5334 17.198C8.74414 17.4506 9.03722 17.6208 9.36106 17.6785L14.5677 18.6383C14.8506 18.6905 15.1063 18.8402 15.2903 19.0612C15.4744 19.2822 15.5754 19.5607 15.5756 19.8484V23.8532H17.9808V19.8484C17.9808 16.659 13.288 15.3578 13.288 15.3578Z" fill="#093F68"/>
<path d="M17.9811 24.0191H15.5675C15.5236 24.0191 15.4814 24.0016 15.4503 23.9705C15.4192 23.9394 15.4018 23.8973 15.4018 23.8533V19.8484C15.4013 19.5995 15.314 19.3586 15.1548 19.1673C14.9956 18.976 14.7745 18.8464 14.5298 18.8008L9.32316 17.8443C8.96377 17.7784 8.63889 17.5885 8.40506 17.3077C8.17124 17.0269 8.04328 16.673 8.04346 16.3077V15.3993C8.04346 15.3553 8.06092 15.3131 8.09201 15.2821C8.1231 15.251 8.16526 15.2335 8.20922 15.2335L13.2883 15.202C13.3031 15.1996 13.3182 15.1996 13.333 15.202C14.1725 15.4531 14.9764 15.8108 15.725 16.2662C17.318 17.2459 18.1468 18.4842 18.1468 19.8484V23.8533C18.1468 23.8973 18.1294 23.9394 18.0983 23.9705C18.0672 24.0016 18.025 24.0191 17.9811 24.0191ZM15.7283 23.6875H17.8153V19.8484C17.8153 16.9293 13.5982 15.6297 13.2601 15.5302L8.37001 15.5601V16.3043C8.37026 16.592 8.47118 16.8705 8.65527 17.0915C8.83936 17.3125 9.095 17.4622 9.37787 17.5144L14.5845 18.4759C14.9056 18.5348 15.1959 18.7044 15.4048 18.9551C15.6138 19.2059 15.7283 19.522 15.7283 19.8484V23.6875Z" fill="#093F68"/>
<path d="M14.2142 3.53712C14.2142 3.53712 14.5358 5.36054 14.2142 6.93034C13.8926 8.50013 11.0547 9.3157 9.8745 8.09069C8.69425 6.86569 7.94334 3.83053 9.66895 2.75968C11.3946 1.68884 14.2142 3.53712 14.2142 3.53712Z" fill="#FFC9B0"/>
<path d="M11.4644 8.84989C11.1508 8.86294 10.8378 8.81255 10.5441 8.70175C10.2505 8.59095 9.9822 8.42202 9.75538 8.20507C8.89174 7.30662 8.36626 5.67881 8.51545 4.41733C8.61657 3.61172 8.98457 2.9901 9.58298 2.61878C11.3782 1.50318 14.1863 3.32328 14.3056 3.40119C14.3246 3.41349 14.3409 3.42954 14.3534 3.44836C14.366 3.46717 14.3745 3.48835 14.3786 3.5106C14.3918 3.58685 14.7002 5.38706 14.3786 6.9668C14.2128 7.74258 13.4851 8.40896 12.4607 8.70568C12.1369 8.80001 11.8016 8.84856 11.4644 8.84989ZM10.9505 2.59392C10.5316 2.58248 10.118 2.68934 9.75703 2.90224C9.11386 3.30174 8.90666 3.96977 8.84533 4.46043C8.67956 5.74843 9.30284 7.26021 9.99408 7.97797C10.4914 8.50013 11.4279 8.66092 12.3678 8.38907C13.258 8.13047 13.9194 7.54698 14.052 6.89718C14.3272 5.55282 14.1167 3.988 14.0636 3.63824C13.7503 3.44595 12.2866 2.59392 10.9505 2.59392Z" fill="#093F68"/>
<path d="M13.5699 5.96725C13.7421 5.96725 13.8816 5.82847 13.8816 5.65727C13.8816 5.48607 13.7421 5.34729 13.5699 5.34729C13.3978 5.34729 13.2583 5.48607 13.2583 5.65727C13.2583 5.82847 13.3978 5.96725 13.5699 5.96725Z" fill="#093F68"/>
<path d="M14.0985 5.96729C14.0985 5.96729 14.6554 7.01824 14.4433 7.07294C14.2727 7.10229 14.0983 7.10229 13.9277 7.07294" fill="#FFC9B0"/>
<path d="M14.2111 7.26184C14.1062 7.26102 14.0014 7.25215 13.8978 7.23531C13.8761 7.2315 13.8552 7.22344 13.8366 7.21159C13.8179 7.19974 13.8018 7.18434 13.7891 7.16625C13.7764 7.14816 13.7674 7.12775 13.7626 7.10618C13.7578 7.08462 13.7573 7.06231 13.7611 7.04054C13.7649 7.01877 13.7729 6.99797 13.7848 6.97931C13.7966 6.96066 13.812 6.94452 13.8301 6.93182C13.8482 6.91912 13.8686 6.91011 13.8902 6.9053C13.9118 6.90049 13.9341 6.89997 13.9558 6.90378C14.0763 6.92376 14.1987 6.92933 14.3205 6.92036C14.2304 6.61412 14.1064 6.31889 13.9509 6.04015C13.9304 6.00124 13.9263 5.95581 13.9393 5.91384C13.9524 5.87188 13.9816 5.83682 14.0205 5.81637C14.0594 5.79593 14.1048 5.79179 14.1468 5.80485C14.1888 5.8179 14.2238 5.84709 14.2443 5.88599C14.4747 6.32029 14.73 6.88058 14.6322 7.10104C14.6185 7.13219 14.598 7.15985 14.5722 7.18196C14.5464 7.20406 14.5159 7.22004 14.483 7.22868C14.394 7.25043 14.3027 7.26156 14.2111 7.26184Z" fill="#093F68"/>
<path d="M12.4173 5.16492C12.3737 5.16906 12.3298 5.16458 12.288 5.15174C12.2462 5.1389 12.2073 5.11795 12.1736 5.09009C12.1055 5.03382 12.0626 4.95281 12.0542 4.86488C12.0501 4.82135 12.0546 4.77742 12.0674 4.73562C12.0802 4.69381 12.1012 4.65494 12.1291 4.62123C12.1569 4.58752 12.1911 4.55963 12.2298 4.53915C12.2684 4.51867 12.3107 4.506 12.3543 4.50186L13.8097 4.22006C13.8533 4.20918 13.8987 4.20729 13.943 4.21449C13.9874 4.22169 14.0298 4.23783 14.0678 4.26194C14.1057 4.28605 14.1383 4.31763 14.1637 4.35474C14.189 4.39185 14.2066 4.43373 14.2152 4.47783C14.2239 4.52194 14.2235 4.56734 14.2141 4.61129C14.2046 4.65523 14.1864 4.6968 14.1604 4.73347C14.1344 4.77013 14.1012 4.80113 14.0629 4.82458C14.0245 4.84802 13.9818 4.86343 13.9373 4.86986L12.4802 5.15166C12.4599 5.15865 12.4387 5.16311 12.4173 5.16492Z" fill="#093F68"/>
<path d="M14.5911 3.42268C14.5911 3.42268 12.4809 3.55031 11.8477 4.41727C11.2145 5.28422 12.3748 6.57221 12.1212 7.24522C11.8676 7.91822 11.4466 8.17516 10.4321 8.2597C9.4176 8.34424 7.96384 7.48889 7.3704 6.53574C6.77696 5.58259 5.91001 4.09734 7.09855 2.04517C8.18762 0.160418 10.5398 -0.0583924 11.9803 0.319552C13.57 0.747226 14.5281 1.1202 14.5911 3.42268Z" fill="#70CC40"/>
<path d="M10.2958 8.42719C9.26144 8.42719 7.83917 7.59837 7.22915 6.61869C6.69208 5.7534 5.6892 4.14216 6.95398 1.95904C8.11434 -0.0483784 10.6224 -0.215801 12.0231 0.160486C13.6807 0.606394 14.6919 1.04733 14.7565 3.41611C14.7566 3.45841 14.7405 3.49913 14.7116 3.52995C14.6826 3.56076 14.6429 3.57934 14.6007 3.58188C14.5808 3.58188 12.5602 3.71449 11.98 4.50685C11.6667 4.93618 11.8789 5.51801 12.0844 6.07996C12.2502 6.52918 12.4043 6.95354 12.2767 7.29502C11.9999 8.03267 11.5208 8.32608 10.4533 8.41559C10.401 8.4222 10.3485 8.42608 10.2958 8.42719ZM10.7251 0.329566C9.48853 0.329566 8.02648 0.770501 7.24407 2.1248C6.08372 4.13553 6.97719 5.58101 7.51427 6.44464C8.08782 7.3663 9.50345 8.16528 10.4218 8.09069C11.3766 8.01112 11.738 7.79894 11.97 7.18395C12.0546 6.95686 11.9187 6.58886 11.7761 6.19931C11.5523 5.58432 11.297 4.88811 11.7164 4.31622C12.2883 3.53381 13.9012 3.32163 14.4234 3.26858C14.3256 1.22304 13.452 0.886537 11.9369 0.480413C11.5411 0.378288 11.1339 0.327588 10.7251 0.329566Z" fill="#093F68"/>
<path d="M14.5624 2.18945C14.5624 2.18945 12.6661 2.59392 12.56 2.82433C12.4539 3.05475 12.6379 3.38296 13.4054 3.63658C14.1729 3.8902 16.1985 3.69957 16.177 3.27687C16.1554 2.85417 14.5624 2.18945 14.5624 2.18945Z" fill="#70CC40"/>
<path d="M14.3822 3.92009C14.0351 3.92952 13.6885 3.88933 13.3528 3.80074C12.8406 3.63498 12.524 3.41451 12.4112 3.15758C12.383 3.09564 12.3684 3.02837 12.3684 2.96031C12.3684 2.89226 12.383 2.82499 12.4112 2.76305C12.5041 2.55751 13.2168 2.31383 14.5297 2.03535C14.5621 2.02516 14.5968 2.02516 14.6292 2.03535C15.1364 2.24752 16.3216 2.79289 16.3448 3.26698C16.3455 3.32661 16.3306 3.38537 16.3015 3.43743C16.2724 3.48949 16.2302 3.53302 16.1791 3.5637C15.8857 3.79411 15.0933 3.92009 14.3822 3.92009ZM12.7063 2.9139C12.6991 2.93124 12.6954 2.94983 12.6954 2.9686C12.6954 2.98738 12.6991 3.00597 12.7063 3.02331C12.7394 3.09956 12.8721 3.29682 13.4489 3.48579C14.1998 3.73444 15.8906 3.509 16.0067 3.27858C15.9967 3.12939 15.3038 2.69509 14.538 2.37019C13.7539 2.5343 12.8505 2.78295 12.7063 2.90727V2.9139Z" fill="#093F68"/>
<path d="M10.6706 7.4541C10.9068 7.4541 11.0983 7.26263 11.0983 7.02643C11.0983 6.79023 10.9068 6.59875 10.6706 6.59875C10.4344 6.59875 10.2429 6.79023 10.2429 7.02643C10.2429 7.26263 10.4344 7.4541 10.6706 7.4541Z" fill="#093F68"/>
<path d="M10.6701 7.61998C10.5527 7.61998 10.438 7.58518 10.3404 7.51997C10.2428 7.45476 10.1667 7.36208 10.1218 7.25364C10.0769 7.14521 10.0652 7.02589 10.0881 6.91077C10.111 6.79566 10.1675 6.68991 10.2505 6.60692C10.3335 6.52393 10.4392 6.46741 10.5543 6.44451C10.6694 6.42161 10.7888 6.43336 10.8972 6.47828C11.0056 6.52319 11.0983 6.59926 11.1635 6.69685C11.2287 6.79444 11.2635 6.90917 11.2635 7.02654C11.2635 7.10448 11.2482 7.18164 11.2184 7.25364C11.1885 7.32564 11.1448 7.39106 11.0897 7.44617C11.0346 7.50127 10.9692 7.54499 10.8972 7.57481C10.8252 7.60463 10.748 7.61998 10.6701 7.61998ZM10.6701 6.76464C10.6183 6.76464 10.5677 6.78 10.5246 6.80878C10.4815 6.83755 10.448 6.87846 10.4281 6.92632C10.4083 6.97417 10.4031 7.02683 10.4132 7.07764C10.4233 7.12845 10.4483 7.17511 10.4849 7.21174C10.5215 7.24837 10.5682 7.27332 10.619 7.28342C10.6698 7.29353 10.7225 7.28834 10.7703 7.26852C10.8182 7.24869 10.8591 7.21512 10.8879 7.17205C10.9166 7.12898 10.932 7.07835 10.932 7.02654C10.932 6.95708 10.9044 6.89046 10.8553 6.84135C10.8062 6.79223 10.7396 6.76464 10.6701 6.76464Z" fill="#093F68"/>
<path d="M13.4122 7.65309C13.2028 7.66618 12.9958 7.60256 12.8298 7.47413C12.6639 7.3457 12.5504 7.16124 12.5105 6.95522C12.5064 6.93378 12.5066 6.91174 12.5111 6.89037C12.5155 6.869 12.5242 6.84872 12.5365 6.8307C12.5488 6.81268 12.5646 6.79727 12.5829 6.78536C12.6012 6.77344 12.6216 6.76526 12.6431 6.76128C12.6862 6.753 12.7308 6.76214 12.7671 6.78669C12.8035 6.81123 12.8286 6.84918 12.837 6.89223C12.9249 7.35969 13.4172 7.32488 13.4736 7.31825C13.4953 7.31596 13.5174 7.31799 13.5383 7.32421C13.5593 7.33042 13.5789 7.34071 13.5959 7.35449C13.6129 7.36827 13.627 7.38526 13.6375 7.4045C13.6479 7.42373 13.6545 7.44484 13.6568 7.46661C13.659 7.48838 13.657 7.51038 13.6508 7.53137C13.6446 7.55235 13.6343 7.57191 13.6205 7.58892C13.6067 7.60593 13.5897 7.62006 13.5705 7.6305C13.5513 7.64094 13.5302 7.64749 13.5084 7.64978C13.4764 7.6526 13.4443 7.65371 13.4122 7.65309Z" fill="#093F68"/>
</svg>
