<svg width="6" height="11" viewBox="0 0 6 11" fill="none" xmlns="http://www.w3.org/2000/svg">
<path d="M0.229439 10.4568C0.0825295 10.3099 0 10.1106 0 9.90281C0 9.69501 0.0825295 9.49573 0.229439 9.34877L4.10846 5.46975L0.229439 1.59073C0.0866928 1.44294 0.00770617 1.24499 0.00949192 1.03952C0.0112772 0.834051 0.0936918 0.637505 0.238985 0.492211C0.384278 0.346918 0.580825 0.264504 0.786294 0.262718C0.991761 0.260933 1.18971 0.33992 1.33751 0.482666L5.77056 4.91572C5.91747 5.06267 6 5.26196 6 5.46975C6 5.67755 5.91747 5.87683 5.77056 6.02379L1.33751 10.4568C1.19055 10.6037 0.991266 10.6863 0.783473 10.6863C0.57568 10.6863 0.376394 10.6037 0.229439 10.4568Z" fill="#3F3E3E"/>
</svg>
