<svg width="15" height="22" viewBox="0 0 15 22" fill="none" xmlns="http://www.w3.org/2000/svg">
<path fill-rule="evenodd" clip-rule="evenodd" d="M5.35714 0C4.46952 0 3.75 0.719545 3.75 1.60714H1.60714C0.719518 1.60714 0 2.32669 0 3.21429V19.8214C0 20.7091 0.719518 21.4286 1.60714 21.4286H13.3929C14.2805 21.4286 15 20.7091 15 19.8214V3.21429C15 2.32669 14.2805 1.60714 13.3929 1.60714H11.25C11.25 0.719545 10.5305 0 9.64286 0H5.35714ZM4.82143 1.60714C4.82143 1.31128 5.06127 1.07143 5.35714 1.07143H9.64286C9.93873 1.07143 10.1786 1.31128 10.1786 1.60714V2.67857C10.1786 2.97444 9.93873 3.21429 9.64286 3.21429H5.35714C5.06127 3.21429 4.82143 2.97444 4.82143 2.67857V1.60714ZM4.82143 5.89286V7.5H3.21429V8.57143H4.82143V10.1786H5.89286V8.57143H7.5V7.5H5.89286V5.89286H4.82143ZM3.75 11.7857C3.45412 11.7857 3.21429 12.0256 3.21429 12.3214C3.21429 12.6173 3.45412 12.8571 3.75 12.8571H11.25C11.5459 12.8571 11.7857 12.6173 11.7857 12.3214C11.7857 12.0256 11.5459 11.7857 11.25 11.7857H3.75ZM3.21429 15C3.21429 14.7041 3.45412 14.4643 3.75 14.4643H11.25C11.5459 14.4643 11.7857 14.7041 11.7857 15C11.7857 15.2959 11.5459 15.5357 11.25 15.5357H3.75C3.45412 15.5357 3.21429 15.2959 3.21429 15ZM3.75 17.1429C3.45412 17.1429 3.21429 17.3827 3.21429 17.6786C3.21429 17.9744 3.45412 18.2143 3.75 18.2143H11.25C11.5459 18.2143 11.7857 17.9744 11.7857 17.6786C11.7857 17.3827 11.5459 17.1429 11.25 17.1429H3.75Z" fill="#6E6E6E"/>
</svg>
