<svg width="14" height="13" viewBox="0 0 14 13" fill="none" xmlns="http://www.w3.org/2000/svg">
<path d="M6.51105 0C2.92119 0 0.0110474 2.91015 0.0110474 6.5C0.0110474 10.0899 2.92119 13 6.51105 13C10.1009 13 13.011 10.0899 13.011 6.5C13.011 2.91015 10.1009 0 6.51105 0ZM5.4732 2.83661H7.54889V5.46216H10.1744V7.53784H7.54889V10.1634H5.4732V7.53784H2.84766V5.46216H5.4732V2.83661Z" fill="#ED6900"/>
<circle cx="6.50607" cy="6.49516" r="4.28922" fill="#ED6900"/>
<path d="M9.83038 7.4448H7.45599V9.81919C7.45599 9.95275 7.41023 10.0653 7.31872 10.1568C7.22721 10.2483 7.11467 10.2941 6.98111 10.2941H6.03136C5.8978 10.2941 5.78526 10.2471 5.69375 10.1531C5.60224 10.0591 5.55648 9.9478 5.55648 9.81919V7.4448H3.18209C3.04853 7.4448 2.936 7.39781 2.84448 7.30382C2.75297 7.20984 2.70721 7.09854 2.70721 6.96993V6.02017C2.70721 5.88661 2.75297 5.77408 2.84448 5.68256C2.936 5.59105 3.04853 5.54529 3.18209 5.54529H5.55648V3.17091C5.55648 3.03735 5.60224 2.92481 5.69375 2.8333C5.78526 2.74179 5.8978 2.69603 6.03136 2.69603H6.98111C7.11467 2.69603 7.22721 2.74179 7.31872 2.8333C7.41023 2.92481 7.45599 3.03735 7.45599 3.17091V5.54529H9.83038C9.96393 5.54529 10.0765 5.59105 10.168 5.68256C10.2595 5.77408 10.3053 5.88661 10.3053 6.02017V6.96993C10.3053 7.09854 10.2595 7.20984 10.168 7.30382C10.0765 7.39781 9.96393 7.4448 9.83038 7.4448Z" fill="white"/>
</svg>
