<svg width="14" height="13" viewBox="0 0 14 13" fill="none" xmlns="http://www.w3.org/2000/svg">
<path d="M6.51105 0C2.92119 0 0.0110474 2.91015 0.0110474 6.5C0.0110474 10.0899 2.92119 13 6.51105 13C10.1009 13 13.011 10.0899 13.011 6.5C13.011 2.91015 10.1009 0 6.51105 0ZM5.4732 2.83661H7.54889V5.46216H10.1744V7.53784H7.54889V10.1634H5.4732V7.53784H2.84766V5.46216H5.4732V2.83661Z" fill="#929292"/>
<circle cx="6.50607" cy="6.49515" r="4.28922" fill="#929292"/>
<path d="M9.83038 7.44482H7.45599V9.81921C7.45599 9.95277 7.41023 10.0653 7.31872 10.1568C7.22721 10.2483 7.11467 10.2941 6.98111 10.2941H6.03136C5.8978 10.2941 5.78526 10.2471 5.69375 10.1531C5.60224 10.0591 5.55648 9.94782 5.55648 9.81921V7.44482H3.18209C3.04853 7.44482 2.936 7.39783 2.84448 7.30384C2.75297 7.20985 2.70721 7.09855 2.70721 6.96994V6.02019C2.70721 5.88663 2.75297 5.77409 2.84448 5.68258C2.936 5.59107 3.04853 5.54531 3.18209 5.54531H5.55648V3.17092C5.55648 3.03736 5.60224 2.92483 5.69375 2.83331C5.78526 2.7418 5.8978 2.69604 6.03136 2.69604H6.98111C7.11467 2.69604 7.22721 2.7418 7.31872 2.83331C7.41023 2.92483 7.45599 3.03736 7.45599 3.17092V5.54531H9.83038C9.96393 5.54531 10.0765 5.59107 10.168 5.68258C10.2595 5.77409 10.3053 5.88663 10.3053 6.02019V6.96994C10.3053 7.09855 10.2595 7.20985 10.168 7.30384C10.0765 7.39783 9.96393 7.44482 9.83038 7.44482Z" fill="white"/>
</svg>
