<svg width="23" height="28" viewBox="0 0 23 28" fill="none" xmlns="http://www.w3.org/2000/svg">
<path d="M0 28V5.34375C0 4.04932 0.95138 3 2.125 3H14.875C16.0486 3 17 4.04932 17 5.34375V28L8.5 22.5312L0 28Z" fill="#598FF9"/>
<path d="M15.5 0C11.3579 0 8 3.35786 8 7.5C8 11.6421 11.3579 15 15.5 15C19.6421 15 23 11.6421 23 7.5C23 3.35786 19.6421 0 15.5 0ZM14.3025 3.27301H16.6975V6.30249H19.727V8.69751H16.6975V11.727H14.3025V8.69751H11.273V6.30249H14.3025V3.27301Z" fill="#203560"/>
<circle cx="15.4943" cy="7.49441" r="4.94909" fill="#203560"/>
<path d="M19.33 8.59016H16.5903V11.3298C16.5903 11.4839 16.5375 11.6138 16.4319 11.7194C16.3263 11.825 16.1965 11.8778 16.0424 11.8778H14.9465C14.7924 11.8778 14.6626 11.8236 14.557 11.7151C14.4514 11.6067 14.3986 11.4782 14.3986 11.3298V8.59016H11.6589C11.5048 8.59016 11.3749 8.53594 11.2693 8.4275C11.1638 8.31905 11.111 8.19063 11.111 8.04223V6.94636C11.111 6.79225 11.1638 6.6624 11.2693 6.55681C11.3749 6.45122 11.5048 6.39842 11.6589 6.39842H14.3986V3.65874C14.3986 3.50464 14.4514 3.37479 14.557 3.2692C14.6626 3.16361 14.7924 3.11081 14.9465 3.11081H16.0424C16.1965 3.11081 16.3263 3.16361 16.4319 3.2692C16.5375 3.37479 16.5903 3.50464 16.5903 3.65874V6.39842H19.33C19.4841 6.39842 19.614 6.45122 19.7195 6.55681C19.8251 6.6624 19.8779 6.79225 19.8779 6.94636V8.04223C19.8779 8.19063 19.8251 8.31905 19.7195 8.4275C19.614 8.53594 19.4841 8.59016 19.33 8.59016Z" fill="white"/>
</svg>
