<svg width="13" height="12" viewBox="0 0 13 12" fill="none" xmlns="http://www.w3.org/2000/svg">
<path d="M8.125 7.71875C8.125 7.9432 7.9432 8.125 7.71875 8.125H5.28125C5.0568 8.125 4.875 7.9432 4.875 7.71875V6.5H0V10.1562C0 10.8062 0.56875 11.375 1.21875 11.375H11.7812C12.4312 11.375 13 10.8062 13 10.1562V6.5H8.125V7.71875ZM11.7812 2.4375H9.75V1.21875C9.75 0.56875 9.18125 0 8.53125 0H4.46875C3.81875 0 3.25 0.56875 3.25 1.21875V2.4375H1.21875C0.56875 2.4375 0 3.00625 0 3.65625V5.6875H13V3.65625C13 3.00625 12.4312 2.4375 11.7812 2.4375ZM8.125 2.4375H4.875V1.625H8.125V2.4375Z" fill="black"/>
</svg>
