<svg width="12" height="13" viewBox="0 0 12 13" fill="none" xmlns="http://www.w3.org/2000/svg">
<path d="M6.68701 0.273102C6.30151 -0.0910342 5.69849 -0.0910342 5.31299 0.273102L0.46948 4.84825C0.1698 5.13133 0 5.52519 0 5.93723V11.5014C0 12.329 0.67157 13 1.5 13H3C3.82843 13 4.5 12.329 4.5 11.5014V9.00366C4.5 8.7278 4.72386 8.50415 5 8.50415H7C7.27614 8.50415 7.5 8.7278 7.5 9.00366V11.5014C7.5 12.329 8.1716 13 9 13H10.5C11.3284 13 12 12.329 12 11.5014V5.93723C12 5.52519 11.8302 5.13133 11.5305 4.84825L6.68701 0.273102Z" fill="#212121"/>
</svg>
