<svg width="40" height="40" viewBox="0 0 40 40" fill="none" xmlns="http://www.w3.org/2000/svg">
<circle cx="20" cy="20" r="19.5" fill="white" stroke="#598FF9"/>
<path d="M26.4629 21.6296C23.4052 21.6296 20.9259 24.1089 20.9259 27.1667C20.9259 30.2244 23.4052 32.7037 26.4629 32.7037C29.5207 32.7037 32 30.2244 32 27.1667C32 24.1089 29.5207 21.6296 26.4629 21.6296ZM28.6444 28.8686L28.2909 29.3506C28.2832 29.3611 28.2735 29.37 28.2624 29.3767C28.2513 29.3834 28.2389 29.3879 28.2261 29.3899C28.2132 29.3918 28.2001 29.3912 28.1874 29.3881C28.1748 29.3849 28.1629 29.3793 28.1525 29.3716L26.1082 27.8811C26.0955 27.8719 26.0851 27.8598 26.078 27.8459C26.0709 27.8319 26.0673 27.8164 26.0674 27.8007V24.3982C26.0674 24.3438 26.1119 24.2993 26.1663 24.2993H26.7608C26.8152 24.2993 26.8597 24.3438 26.8597 24.3982V27.4571L28.6221 28.7314C28.6666 28.7623 28.6765 28.8241 28.6444 28.8686Z" fill="#598FF9"/>
<path fill-rule="evenodd" clip-rule="evenodd" d="M15.084 8C15.5505 8 15.9287 8.3881 15.9287 8.86686V9.14825C15.9838 9.13386 16.0391 9.11999 16.0946 9.10664C18.3932 8.55334 20.7855 8.55334 23.0841 9.10664C23.1396 9.11999 23.1949 9.13386 23.2499 9.14825V8.86686C23.2499 8.3881 23.6281 8 24.0947 8C24.5612 8 24.9394 8.3881 24.9394 8.86686V9.78027C26.3954 10.502 27.629 11.6124 28.5154 12.9832H10.6633C11.5497 11.6124 12.7833 10.502 14.2392 9.78027V8.86686C14.2392 8.3881 14.6175 8 15.084 8ZM9.98692 14.229C9.73931 14.7821 9.54309 15.3651 9.4044 15.9719C8.8652 18.3307 8.8652 20.7855 9.4044 23.1443C10.1831 26.5507 12.775 29.2105 16.0946 30.0095C17.639 30.3813 19.2257 30.5033 20.7979 30.3754C20.038 29.3429 19.589 28.0674 19.589 26.6871C19.589 23.6495 21.7633 21.1197 24.6405 20.5692C24.6955 20.5017 24.7793 20.4586 24.8732 20.4586H25.519C25.5364 20.4586 25.5534 20.4601 25.57 20.4629C25.6523 20.4597 25.735 20.4581 25.8181 20.4581C27.4198 20.4581 28.8803 21.0626 29.9839 22.0559C30.3009 20.0368 30.231 17.9699 29.7743 15.9719C29.6356 15.3651 29.4394 14.7821 29.1918 14.229H9.98692ZM13.3604 17.0208C13.3604 16.8551 13.4947 16.7208 13.6604 16.7208H14.3062C14.4719 16.7208 14.6062 16.8551 14.6062 17.0208V17.6666C14.6062 17.8323 14.4719 17.9666 14.3062 17.9666H13.6604C13.4947 17.9666 13.3604 17.8323 13.3604 17.6666V17.0208ZM17.3983 16.7208C17.2326 16.7208 17.0983 16.8551 17.0983 17.0208V17.6666C17.0983 17.8323 17.2326 17.9666 17.3983 17.9666H18.0441C18.2098 17.9666 18.3441 17.8323 18.3441 17.6666V17.0208C18.3441 16.8551 18.2098 16.7208 18.0441 16.7208H17.3983ZM20.8352 17.0208C20.8352 16.8551 20.9695 16.7208 21.1352 16.7208H21.781C21.9466 16.7208 22.081 16.8551 22.081 17.0208V17.6666C22.081 17.8323 21.9466 17.9666 21.781 17.9666H21.1352C20.9695 17.9666 20.8352 17.8323 20.8352 17.6666V17.0208ZM24.8732 16.7208C24.7075 16.7208 24.5732 16.8551 24.5732 17.0208V17.6666C24.5732 17.8323 24.7075 17.9666 24.8732 17.9666H25.519C25.6847 17.9666 25.819 17.8323 25.819 17.6666V17.0208C25.819 16.8551 25.6847 16.7208 25.519 16.7208H24.8732ZM13.3604 20.7586C13.3604 20.5929 13.4947 20.4586 13.6604 20.4586H14.3062C14.4719 20.4586 14.6062 20.5929 14.6062 20.7586V21.4044C14.6062 21.5701 14.4719 21.7044 14.3062 21.7044H13.6604C13.4947 21.7044 13.3604 21.5701 13.3604 21.4044V20.7586ZM17.3983 20.4586C17.2326 20.4586 17.0983 20.5929 17.0983 20.7586V21.4044C17.0983 21.5701 17.2326 21.7044 17.3983 21.7044H18.0441C18.2098 21.7044 18.3441 21.5701 18.3441 21.4044V20.7586C18.3441 20.5929 18.2098 20.4586 18.0441 20.4586H17.3983ZM20.8352 20.7586C20.8352 20.5929 20.9695 20.4586 21.1352 20.4586H21.781C21.9466 20.4586 22.081 20.5929 22.081 20.7586V21.4044C22.081 21.5701 21.9466 21.7044 21.781 21.7044H21.1352C20.9695 21.7044 20.8352 21.5701 20.8352 21.4044V20.7586ZM13.3604 24.4955C13.3604 24.3299 13.4947 24.1955 13.6604 24.1955H14.3062C14.4719 24.1955 14.6062 24.3299 14.6062 24.4955V25.1413C14.6062 25.307 14.4719 25.4413 14.3062 25.4413H13.6604C13.4947 25.4413 13.3604 25.307 13.3604 25.1413V24.4955ZM17.3983 24.1955C17.2326 24.1955 17.0983 24.3299 17.0983 24.4955V25.1413C17.0983 25.307 17.2326 25.4413 17.3983 25.4413H18.0441C18.2098 25.4413 18.3441 25.307 18.3441 25.1413V24.4955C18.3441 24.3299 18.2098 24.1955 18.0441 24.1955H17.3983Z" fill="#598FF9"/>
</svg>
