<svg width="15" height="17" viewBox="0 0 15 17" fill="none" xmlns="http://www.w3.org/2000/svg">
<path d="M0 11.5891L0.58439 11.1713L3.2031 15.5678L14.0578 9.0223L14.6422 9.71864L3.20313 16.5427L0 11.5891ZM0.220492 9.20514L0.665592 8.9266L3.28433 13.4624L14.1391 7.05617L14.5842 7.89176L3.28433 14.5765L0.220492 9.20514ZM0.0792673 6.68477L11.6576 0L15 5.78919L3.42165 12.474L0.0792673 6.68477ZM7.59964 3.6209C6.21519 3.6209 5.09285 4.74323 5.09285 6.12769C5.09285 7.51217 6.21519 8.63448 7.59964 8.63448C8.98409 8.63448 10.1064 7.51217 10.1064 6.12769C10.1064 4.74323 8.98409 3.6209 7.59964 3.6209ZM8.75287 7.71071L8.37176 7.93075L8.16232 7.56801L7.76169 7.72422L7.42685 7.77369L7.27982 7.25762L7.62863 7.21586L8.00671 7.06732C8.12077 7.00068 8.20331 6.92458 8.25429 6.83902C8.30527 6.75345 8.30995 6.67144 8.2684 6.59305C8.22593 6.52015 8.15226 6.47864 8.04741 6.4685L7.6319 6.50706C7.38727 6.55808 7.17181 6.56322 6.98552 6.52258C6.79926 6.48191 6.65065 6.36897 6.53978 6.18377C6.43909 6.00747 6.40968 5.82606 6.45148 5.63956C6.49331 5.45305 6.6091 5.27784 6.79884 5.11392L6.58739 4.7477L6.96564 4.52932L7.1615 4.86856L7.51224 4.72388L7.79121 4.67459L7.93124 5.17715L7.67342 5.21127L7.27895 5.37118C7.15704 5.44485 7.08396 5.51832 7.05968 5.59167C7.03541 5.66499 7.04069 5.72973 7.07552 5.78588C7.10922 5.84773 7.17843 5.88225 7.28317 5.88943L7.74716 5.84112C8.02271 5.78898 8.24409 5.79257 8.41121 5.85189C8.57836 5.91124 8.7116 6.02956 8.81088 6.20688C8.91284 6.38361 8.94289 6.56962 8.90099 6.76489C8.85908 6.96019 8.73401 7.14434 8.5258 7.3174L8.75287 7.71071Z" fill="#598FF9"/>
</svg>
