<svg width="8" height="10" viewBox="0 0 8 10" fill="none" xmlns="http://www.w3.org/2000/svg">
<path d="M4 4.57143C5.2625 4.57143 6.28571 3.54821 6.28571 2.28571C6.28571 1.02321 5.2625 0 4 0C2.7375 0 1.71429 1.02321 1.71429 2.28571C1.71429 3.54821 2.7375 4.57143 4 4.57143ZM5.6 5.14286H5.30179C4.90536 5.325 4.46429 5.42857 4 5.42857C3.53571 5.42857 3.09643 5.325 2.69821 5.14286H2.4C1.075 5.14286 0 6.21786 0 7.54286V8.28571C0 8.75893 0.383929 9.14286 0.857143 9.14286H7.14286C7.61607 9.14286 8 8.75893 8 8.28571V7.54286C8 6.21786 6.925 5.14286 5.6 5.14286Z" fill="#929292"/>
</svg>
